SplineFontDB: 3.0
FontName: FdSymbolE-Medium
FullName: FdSymbolE-Medium
FamilyName: FdSymbolE
Weight: Medium
Copyright: Copyright (c) 2012, Michael Ummels. This Font Software is licensed under the SIL Open Font License, Version 1.1.
Version: 1.008
ItalicAngle: 0
UnderlinePosition: -100
UnderlineWidth: 50
Ascent: 800
Descent: 200
InvalidEm: 0
LayerCount: 2
Layer: 0 0 "Back" 1
Layer: 1 0 "Fore" 0
UniqueID: 4900762
OS2Version: 0
OS2_WeightWidthSlopeOnly: 0
OS2_UseTypoMetrics: 0
CreationTime: 1431875261
ModificationTime: 1431875261
OS2TypoAscent: 0
OS2TypoAOffset: 1
OS2TypoDescent: 0
OS2TypoDOffset: 1
OS2TypoLinegap: 0
OS2WinAscent: 0
OS2WinAOffset: 1
OS2WinDescent: 0
OS2WinDOffset: 1
HheadAscent: 0
HheadAOffset: 1
HheadDescent: 0
HheadDOffset: 1
OS2Vendor: 'PfEd'
DEI: 91125
Encoding: Custom
UnicodeInterp: none
NameList: AGL For New Fonts
DisplaySize: -48
AntiAlias: 1
FitToEm: 0
BeginPrivate: 2
BlueValues 31 [-10 0 546 556 707 717 754 764]
OtherBlues 11 [-230 -220]
EndPrivate
BeginChars: 256 128

StartChar: sym090
Encoding: 0 -1 0
Width: 1250
Flags: W
HStem: 232 86<90 582 668 1160>
VStem: 582 86<-260 232 318 810>
LayerCount: 2
Back
Fore
SplineSet
582 810 m 1
 668 810 l 1
 668 318 l 1
 1160 318 l 1
 1160 232 l 1
 668 232 l 1
 668 -260 l 1
 582 -260 l 1
 582 232 l 1
 90 232 l 1
 90 318 l 1
 582 318 l 1
 582 810 l 1
EndSplineSet
EndChar

StartChar: sym090.disp
Encoding: 1 -1 1
Width: 1678
Flags: W
HStem: 232 86<90 796 882 1588>
VStem: 796 86<-474 232 318 1024>
LayerCount: 2
Back
Fore
SplineSet
796 1024 m 1
 882 1024 l 1
 882 318 l 1
 1588 318 l 1
 1588 232 l 1
 882 232 l 1
 882 -474 l 1
 796 -474 l 1
 796 232 l 1
 90 232 l 1
 90 318 l 1
 796 318 l 1
 796 1024 l 1
EndSplineSet
EndChar

StartChar: uni2A09
Encoding: 2 10761 2
Width: 1250
Flags: W
LayerCount: 2
Back
Fore
SplineSet
1160 -199 m 1
 1099 -260 l 1
 625 214 l 1
 151 -260 l 1
 90 -199 l 1
 564 275 l 1
 90 749 l 1
 151 810 l 1
 625 336 l 1
 1099 810 l 1
 1160 749 l 1
 686 275 l 1
 1160 -199 l 1
EndSplineSet
EndChar

StartChar: uni2A09.disp
Encoding: 3 -1 3
Width: 1678
Flags: W
LayerCount: 2
Back
Fore
SplineSet
1588 -413 m 1
 1527 -474 l 1
 839 214 l 1
 151 -474 l 1
 90 -413 l 1
 778 275 l 1
 90 963 l 1
 151 1024 l 1
 839 336 l 1
 1527 1024 l 1
 1588 963 l 1
 900 275 l 1
 1588 -413 l 1
EndSplineSet
EndChar

StartChar: uni22C0
Encoding: 4 8896 4
Width: 900
Flags: W
LayerCount: 2
Back
Fore
SplineSet
804 -235 m 1
 722 -260 l 1
 450 621 l 1
 178 -260 l 1
 96 -235 l 1
 418 810 l 1
 482 810 l 1
 804 -235 l 1
EndSplineSet
EndChar

StartChar: uni22C0.disp
Encoding: 5 -1 5
Width: 1188
Flags: W
LayerCount: 2
Back
Fore
SplineSet
1092 -448 m 1
 1010 -474 l 1
 594 839 l 1
 178 -474 l 1
 96 -448 l 1
 563 1024 l 1
 625 1024 l 1
 1092 -448 l 1
EndSplineSet
EndChar

StartChar: uni22C1
Encoding: 6 8897 6
Width: 900
Flags: W
LayerCount: 2
Back
Fore
SplineSet
96 785 m 1
 178 810 l 1
 450 -71 l 1
 722 810 l 1
 804 785 l 1
 482 -260 l 1
 418 -260 l 1
 96 785 l 1
EndSplineSet
EndChar

StartChar: uni22C1.disp
Encoding: 7 -1 7
Width: 1188
Flags: W
LayerCount: 2
Back
Fore
SplineSet
96 998 m 1
 178 1024 l 1
 594 -289 l 1
 1010 1024 l 1
 1092 998 l 1
 625 -474 l 1
 563 -474 l 1
 96 998 l 1
EndSplineSet
EndChar

StartChar: sym091
Encoding: 8 -1 8
Width: 900
Flags: W
HStem: -87 189<410.251 489.749>
VStem: 356 188<-32.0737 47.1042>
LayerCount: 2
Back
Fore
SplineSet
804 -235 m 1
 722 -260 l 1
 450 621 l 1
 178 -260 l 1
 96 -235 l 1
 418 810 l 1
 482 810 l 1
 804 -235 l 1
544 8 m 0
 544 -11 523 -32 506 -49 c 0
 490 -66 469 -87 450 -87 c 0
 431 -87 410 -66 394 -49 c 0
 377 -32 356 -11 356 8 c 0
 356 26 377 47 394 64 c 0
 410 81 431 102 450 102 c 0
 469 102 490 81 506 64 c 0
 523 47 544 26 544 8 c 0
EndSplineSet
EndChar

StartChar: sym091.disp
Encoding: 9 -1 9
Width: 1188
Flags: W
HStem: -193 188<554.251 633.749>
VStem: 500 188<-139.074 -59.8958>
LayerCount: 2
Back
Fore
SplineSet
1092 -448 m 1
 1010 -474 l 1
 594 839 l 1
 178 -474 l 1
 96 -448 l 1
 563 1024 l 1
 625 1024 l 1
 1092 -448 l 1
688 -99 m 0
 688 -118 667 -139 650 -156 c 0
 634 -173 613 -193 594 -193 c 0
 575 -193 554 -173 538 -156 c 0
 521 -139 500 -118 500 -99 c 0
 500 -81 521 -60 538 -43 c 0
 554 -26 575 -5 594 -5 c 0
 613 -5 634 -26 650 -43 c 0
 667 -60 688 -81 688 -99 c 0
EndSplineSet
EndChar

StartChar: sym092
Encoding: 10 -1 10
Width: 900
Flags: W
HStem: 448 189<410.251 489.749>
VStem: 356 188<502.926 582.104>
LayerCount: 2
Back
Fore
SplineSet
96 785 m 1
 178 810 l 1
 450 -71 l 1
 722 810 l 1
 804 785 l 1
 482 -260 l 1
 418 -260 l 1
 96 785 l 1
544 543 m 0
 544 524 523 503 506 486 c 0
 490 469 469 448 450 448 c 0
 431 448 410 469 394 486 c 0
 377 503 356 524 356 543 c 0
 356 561 377 582 394 599 c 0
 410 616 431 637 450 637 c 0
 469 637 490 616 506 599 c 0
 523 582 544 561 544 543 c 0
EndSplineSet
EndChar

StartChar: sym092.disp
Encoding: 11 -1 11
Width: 1188
Flags: W
HStem: 555 188<554.251 633.749>
VStem: 500 188<609.896 689.074>
LayerCount: 2
Back
Fore
SplineSet
96 998 m 1
 178 1024 l 1
 594 -289 l 1
 1010 1024 l 1
 1092 998 l 1
 625 -474 l 1
 563 -474 l 1
 96 998 l 1
688 649 m 0
 688 631 667 610 650 593 c 0
 634 576 613 555 594 555 c 0
 575 555 554 576 538 593 c 0
 521 610 500 631 500 649 c 0
 500 668 521 689 538 706 c 0
 554 723 575 743 594 743 c 0
 613 743 634 723 650 706 c 0
 667 689 688 668 688 649 c 0
EndSplineSet
EndChar

StartChar: uni2A07
Encoding: 12 10759 12
Width: 1140
Flags: W
LayerCount: 2
Back
Fore
SplineSet
1044 -235 m 1
 962 -260 l 1
 690 621 l 1
 615 378 l 1
 804 -235 l 1
 722 -260 l 1
 570 232 l 1
 418 -260 l 1
 336 -235 l 1
 525 378 l 1
 450 621 l 1
 178 -260 l 1
 96 -235 l 1
 418 810 l 1
 482 810 l 1
 570 524 l 1
 658 810 l 1
 722 810 l 1
 1044 -235 l 1
EndSplineSet
EndChar

StartChar: uni2A07.disp
Encoding: 13 -1 13
Width: 1524
Flags: W
LayerCount: 2
Back
Fore
SplineSet
1428 -448 m 1
 1346 -474 l 1
 930 839 l 1
 807 451 l 1
 1092 -448 l 1
 1010 -474 l 1
 762 309 l 1
 514 -474 l 1
 432 -448 l 1
 717 451 l 1
 594 839 l 1
 178 -474 l 1
 96 -448 l 1
 563 1024 l 1
 625 1024 l 1
 762 592 l 1
 899 1024 l 1
 961 1024 l 1
 1428 -448 l 1
EndSplineSet
EndChar

StartChar: uni2A08
Encoding: 14 10760 14
Width: 1140
Flags: W
LayerCount: 2
Back
Fore
SplineSet
336 785 m 1
 418 810 l 1
 570 318 l 1
 722 810 l 1
 804 785 l 1
 615 172 l 1
 690 -71 l 1
 962 810 l 1
 1044 785 l 1
 722 -260 l 1
 658 -260 l 1
 570 26 l 1
 482 -260 l 1
 418 -260 l 1
 96 785 l 1
 178 810 l 1
 450 -71 l 1
 525 172 l 1
 336 785 l 1
EndSplineSet
EndChar

StartChar: uni2A08.disp
Encoding: 15 -1 15
Width: 1524
Flags: W
LayerCount: 2
Back
Fore
SplineSet
432 998 m 1
 514 1024 l 1
 762 241 l 1
 1010 1024 l 1
 1092 998 l 1
 807 99 l 1
 930 -289 l 1
 1346 1024 l 1
 1428 998 l 1
 961 -474 l 1
 899 -474 l 1
 762 -42 l 1
 625 -474 l 1
 563 -474 l 1
 96 998 l 1
 178 1024 l 1
 594 -289 l 1
 717 99 l 1
 432 998 l 1
EndSplineSet
EndChar

StartChar: sym093
Encoding: 16 -1 16
Width: 900
Flags: W
VStem: 407 86<517.749 810>
LayerCount: 2
Back
Fore
SplineSet
450 288 m 1
 406 79 320 -113 162 -260 c 1
 104 -197 l 1
 361 43 407 414 407 767 c 2
 407 810 l 1
 493 810 l 1
 493 767 l 2
 493 414 539 43 796 -197 c 1
 738 -260 l 1
 580 -113 494 79 450 288 c 1
EndSplineSet
EndChar

StartChar: sym093.disp
Encoding: 17 -1 17
Width: 1188
Flags: W
VStem: 551 86<740.585 1024>
LayerCount: 2
Back
Fore
SplineSet
594 407 m 1
 537 72 412 -241 162 -474 c 1
 104 -411 l 1
 476 -64 551 470 551 981 c 2
 551 1024 l 1
 637 1024 l 1
 637 981 l 2
 637 470 712 -64 1084 -411 c 1
 1026 -474 l 1
 776 -241 651 72 594 407 c 1
EndSplineSet
EndChar

StartChar: sym094
Encoding: 18 -1 18
Width: 900
Flags: W
VStem: 407 86<-260 32.2511>
LayerCount: 2
Back
Fore
SplineSet
450 262 m 1
 494 471 580 663 738 810 c 1
 796 747 l 1
 539 507 493 136 493 -217 c 2
 493 -260 l 1
 407 -260 l 1
 407 -217 l 2
 407 136 361 507 104 747 c 1
 162 810 l 1
 320 663 406 471 450 262 c 1
EndSplineSet
EndChar

StartChar: sym094.disp
Encoding: 19 -1 19
Width: 1188
Flags: W
VStem: 551 86<-474 -190.585>
LayerCount: 2
Back
Fore
SplineSet
594 143 m 1
 651 478 776 791 1026 1024 c 1
 1084 961 l 1
 712 614 637 80 637 -431 c 2
 637 -474 l 1
 551 -474 l 1
 551 -431 l 2
 551 80 476 614 104 961 c 1
 162 1024 l 1
 412 791 537 478 594 143 c 1
EndSplineSet
EndChar

StartChar: uni22C2
Encoding: 20 8898 20
Width: 900
Flags: W
HStem: 724 86<335.984 564.016>
VStem: 90 86<-260 584.205> 724 86<-260 584.205>
LayerCount: 2
Back
Fore
SplineSet
724 -260 m 1
 724 497 l 2
 724 632 594 724 450 724 c 0
 306 724 176 632 176 497 c 2
 176 -260 l 1
 90 -260 l 1
 90 497 l 2
 90 679 259 810 450 810 c 0
 641 810 810 679 810 497 c 2
 810 -260 l 1
 724 -260 l 1
EndSplineSet
EndChar

StartChar: uni22C2.disp
Encoding: 21 -1 21
Width: 1188
Flags: W
HStem: 938 86<457.155 730.845>
VStem: 90 86<-474 693.371> 1012 86<-474 693.371>
LayerCount: 2
Back
Fore
SplineSet
1012 -474 m 1
 1012 583 l 2
 1012 792 814 938 594 938 c 0
 374 938 176 792 176 583 c 2
 176 -474 l 1
 90 -474 l 1
 90 583 l 2
 90 839 326 1024 594 1024 c 0
 862 1024 1098 839 1098 583 c 2
 1098 -474 l 1
 1012 -474 l 1
EndSplineSet
EndChar

StartChar: uni22C3
Encoding: 22 8899 22
Width: 900
Flags: W
HStem: -260 86<335.984 564.016>
VStem: 90 86<-34.2048 810> 724 86<-34.2048 810>
LayerCount: 2
Back
Fore
SplineSet
176 810 m 1
 176 53 l 2
 176 -82 306 -174 450 -174 c 0
 594 -174 724 -82 724 53 c 2
 724 810 l 1
 810 810 l 1
 810 53 l 2
 810 -129 641 -260 450 -260 c 0
 259 -260 90 -129 90 53 c 2
 90 810 l 1
 176 810 l 1
EndSplineSet
EndChar

StartChar: uni22C3.disp
Encoding: 23 -1 23
Width: 1188
Flags: W
HStem: -474 86<457.155 730.845>
VStem: 90 86<-143.371 1024> 1012 86<-143.371 1024>
LayerCount: 2
Back
Fore
SplineSet
176 1024 m 1
 176 -33 l 2
 176 -242 374 -388 594 -388 c 0
 814 -388 1012 -242 1012 -33 c 2
 1012 1024 l 1
 1098 1024 l 1
 1098 -33 l 2
 1098 -289 862 -474 594 -474 c 0
 326 -474 90 -289 90 -33 c 2
 90 1024 l 1
 176 1024 l 1
EndSplineSet
EndChar

StartChar: sym095
Encoding: 24 -1 24
Width: 900
Flags: W
HStem: 47 188<410.251 489.749> 724 86<335.984 564.016>
VStem: 90 86<-260 584.205> 356 188<101.694 181.074> 724 86<-260 584.205>
CounterMasks: 1 38
LayerCount: 2
Back
Fore
SplineSet
724 -260 m 1
 724 497 l 2
 724 632 594 724 450 724 c 0
 306 724 176 632 176 497 c 2
 176 -260 l 1
 90 -260 l 1
 90 497 l 2
 90 679 259 810 450 810 c 0
 641 810 810 679 810 497 c 2
 810 -260 l 1
 724 -260 l 1
544 141 m 0
 544 122 523 102 506 85 c 0
 490 68 469 47 450 47 c 0
 431 47 410 68 394 85 c 0
 377 102 356 122 356 141 c 0
 356 160 377 181 394 198 c 0
 410 214 431 235 450 235 c 0
 469 235 490 214 506 198 c 0
 523 181 544 160 544 141 c 0
EndSplineSet
EndChar

StartChar: sym095.disp
Encoding: 25 -1 25
Width: 1188
Flags: W
HStem: -6 188<554.251 633.749> 938 86<457.155 730.845>
VStem: 90 86<-474 693.371> 500 188<47.9263 127.306> 1012 86<-474 693.371>
CounterMasks: 1 38
LayerCount: 2
Back
Fore
SplineSet
1012 -474 m 1
 1012 583 l 2
 1012 792 814 938 594 938 c 0
 374 938 176 792 176 583 c 2
 176 -474 l 1
 90 -474 l 1
 90 583 l 2
 90 839 326 1024 594 1024 c 0
 862 1024 1098 839 1098 583 c 2
 1098 -474 l 1
 1012 -474 l 1
688 88 m 0
 688 69 667 48 650 31 c 0
 634 15 613 -6 594 -6 c 0
 575 -6 554 15 538 31 c 0
 521 48 500 69 500 88 c 0
 500 107 521 127 538 144 c 0
 554 161 575 182 594 182 c 0
 613 182 634 161 650 144 c 0
 667 127 688 107 688 88 c 0
EndSplineSet
EndChar

StartChar: uni2A03
Encoding: 26 10755 26
Width: 900
Flags: W
HStem: -260 86<335.984 564.016> 315 188<410.251 489.749>
VStem: 90 86<-34.2048 810> 356 188<368.926 448.306> 724 86<-34.2048 810>
CounterMasks: 1 38
LayerCount: 2
Back
Fore
SplineSet
176 810 m 1
 176 53 l 2
 176 -82 306 -174 450 -174 c 0
 594 -174 724 -82 724 53 c 2
 724 810 l 1
 810 810 l 1
 810 53 l 2
 810 -129 641 -260 450 -260 c 0
 259 -260 90 -129 90 53 c 2
 90 810 l 1
 176 810 l 1
544 409 m 0
 544 390 523 369 506 352 c 0
 490 336 469 315 450 315 c 0
 431 315 410 336 394 352 c 0
 377 369 356 390 356 409 c 0
 356 428 377 448 394 465 c 0
 410 482 431 503 450 503 c 0
 469 503 490 482 506 465 c 0
 523 448 544 428 544 409 c 0
EndSplineSet
EndChar

StartChar: uni2A03.disp
Encoding: 27 -1 27
Width: 1188
Flags: W
HStem: -474 86<457.155 730.845> 368 188<554.251 633.749>
VStem: 90 86<-143.371 1024> 500 188<422.694 502.074> 1012 86<-143.371 1024>
CounterMasks: 1 38
LayerCount: 2
Back
Fore
SplineSet
176 1024 m 1
 176 -33 l 2
 176 -242 374 -388 594 -388 c 0
 814 -388 1012 -242 1012 -33 c 2
 1012 1024 l 1
 1098 1024 l 1
 1098 -33 l 2
 1098 -289 862 -474 594 -474 c 0
 326 -474 90 -289 90 -33 c 2
 90 1024 l 1
 176 1024 l 1
688 462 m 0
 688 443 667 423 650 406 c 0
 634 389 613 368 594 368 c 0
 575 368 554 389 538 406 c 0
 521 423 500 443 500 462 c 0
 500 481 521 502 538 519 c 0
 554 535 575 556 594 556 c 0
 613 556 634 535 650 519 c 0
 667 502 688 481 688 462 c 0
EndSplineSet
EndChar

StartChar: sym096
Encoding: 28 -1 28
Width: 900
Flags: W
HStem: 142 86<270 407 493 630> 724 86<335.984 564.016>
VStem: 90 86<-260 584.205> 407 86<5 142 228 365> 724 86<-260 584.205>
CounterMasks: 1 38
LayerCount: 2
Back
Fore
SplineSet
724 -260 m 1
 724 497 l 2
 724 632 594 724 450 724 c 0
 306 724 176 632 176 497 c 2
 176 -260 l 1
 90 -260 l 1
 90 497 l 2
 90 679 259 810 450 810 c 0
 641 810 810 679 810 497 c 2
 810 -260 l 1
 724 -260 l 1
407 365 m 1
 493 365 l 1
 493 228 l 1
 630 228 l 1
 630 142 l 1
 493 142 l 1
 493 5 l 1
 407 5 l 1
 407 142 l 1
 270 142 l 1
 270 228 l 1
 407 228 l 1
 407 365 l 1
EndSplineSet
EndChar

StartChar: sym096.disp
Encoding: 29 -1 29
Width: 1188
Flags: W
HStem: 106 86<342 551 637 846> 938 86<457.155 730.845>
VStem: 90 86<-474 693.371> 551 86<-103 106 192 401> 1012 86<-474 693.371>
CounterMasks: 1 38
LayerCount: 2
Back
Fore
SplineSet
1012 -474 m 1
 1012 583 l 2
 1012 792 814 938 594 938 c 0
 374 938 176 792 176 583 c 2
 176 -474 l 1
 90 -474 l 1
 90 583 l 2
 90 839 326 1024 594 1024 c 0
 862 1024 1098 839 1098 583 c 2
 1098 -474 l 1
 1012 -474 l 1
551 401 m 1
 637 401 l 1
 637 192 l 1
 846 192 l 1
 846 106 l 1
 637 106 l 1
 637 -103 l 1
 551 -103 l 1
 551 106 l 1
 342 106 l 1
 342 192 l 1
 551 192 l 1
 551 401 l 1
EndSplineSet
EndChar

StartChar: uni2A04
Encoding: 30 10756 30
Width: 900
Flags: W
HStem: -260 86<335.984 564.016> 322 86<270 407 493 630> 525 20G<407 493>
VStem: 90 86<-34.2048 810> 407 86<185 322 408 545> 724 86<-34.2048 810>
CounterMasks: 1 1c
LayerCount: 2
Back
Fore
SplineSet
176 810 m 1
 176 53 l 2
 176 -82 306 -174 450 -174 c 0
 594 -174 724 -82 724 53 c 2
 724 810 l 1
 810 810 l 1
 810 53 l 2
 810 -129 641 -260 450 -260 c 0
 259 -260 90 -129 90 53 c 2
 90 810 l 1
 176 810 l 1
407 545 m 1
 493 545 l 1
 493 408 l 1
 630 408 l 1
 630 322 l 1
 493 322 l 1
 493 185 l 1
 407 185 l 1
 407 322 l 1
 270 322 l 1
 270 408 l 1
 407 408 l 1
 407 545 l 1
EndSplineSet
EndChar

StartChar: uni2A04.disp
Encoding: 31 -1 31
Width: 1188
Flags: W
HStem: -474 86<457.155 730.845> 358 86<342 551 637 846>
VStem: 90 86<-143.371 1024> 551 86<149 358 444 653> 1012 86<-143.371 1024>
CounterMasks: 1 38
LayerCount: 2
Back
Fore
SplineSet
176 1024 m 1
 176 -33 l 2
 176 -242 374 -388 594 -388 c 0
 814 -388 1012 -242 1012 -33 c 2
 1012 1024 l 1
 1098 1024 l 1
 1098 -33 l 2
 1098 -289 862 -474 594 -474 c 0
 326 -474 90 -289 90 -33 c 2
 90 1024 l 1
 176 1024 l 1
551 653 m 1
 637 653 l 1
 637 444 l 1
 846 444 l 1
 846 358 l 1
 637 358 l 1
 637 149 l 1
 551 149 l 1
 551 358 l 1
 342 358 l 1
 342 444 l 1
 551 444 l 1
 551 653 l 1
EndSplineSet
EndChar

StartChar: uni2A05
Encoding: 32 10757 32
Width: 900
Flags: W
HStem: 724 86<176 724>
VStem: 90 86<-260 724> 724 86<-260 724>
LayerCount: 2
Back
Fore
SplineSet
176 -260 m 1
 90 -260 l 1
 90 97 90 453 90 810 c 1
 810 810 l 1
 810 453 810 97 810 -260 c 1
 724 -260 l 1
 724 724 l 1
 176 724 l 1
 176 -260 l 1
EndSplineSet
EndChar

StartChar: uni2A05.disp
Encoding: 33 -1 33
Width: 1188
Flags: W
HStem: 938 86<176 1012>
VStem: 90 86<-474 938> 1012 86<-474 938>
LayerCount: 2
Back
Fore
SplineSet
176 -474 m 1
 90 -474 l 1
 90 25 90 525 90 1024 c 1
 1098 1024 l 1
 1098 525 1098 25 1098 -474 c 1
 1012 -474 l 1
 1012 938 l 1
 176 938 l 1
 176 -474 l 1
EndSplineSet
EndChar

StartChar: uni2A06
Encoding: 34 10758 34
Width: 900
Flags: W
HStem: -260 86<176 724>
VStem: 90 86<-174 810> 724 86<-174 810>
LayerCount: 2
Back
Fore
SplineSet
90 810 m 1
 176 810 l 1
 176 -174 l 1
 724 -174 l 1
 724 810 l 1
 810 810 l 1
 810 453 810 97 810 -260 c 1
 90 -260 l 1
 90 97 90 453 90 810 c 1
EndSplineSet
EndChar

StartChar: uni2A06.disp
Encoding: 35 -1 35
Width: 1188
Flags: W
HStem: -474 86<176 1012>
VStem: 90 86<-388 1024> 1012 86<-388 1024>
LayerCount: 2
Back
Fore
SplineSet
90 1024 m 1
 176 1024 l 1
 176 -388 l 1
 1012 -388 l 1
 1012 1024 l 1
 1098 1024 l 1
 1098 525 1098 25 1098 -474 c 1
 90 -474 l 1
 90 25 90 525 90 1024 c 1
EndSplineSet
EndChar

StartChar: sym097
Encoding: 36 -1 36
Width: 900
Flags: W
HStem: 47 188<410.251 489.749> 724 86<176 724>
VStem: 90 86<-260 724> 356 188<101.694 181.074> 724 86<-260 724>
CounterMasks: 1 38
LayerCount: 2
Back
Fore
SplineSet
176 -260 m 1
 90 -260 l 1
 90 97 90 453 90 810 c 1
 810 810 l 1
 810 453 810 97 810 -260 c 1
 724 -260 l 1
 724 724 l 1
 176 724 l 1
 176 -260 l 1
544 141 m 0
 544 122 523 102 506 85 c 0
 490 68 469 47 450 47 c 0
 431 47 410 68 394 85 c 0
 377 102 356 122 356 141 c 0
 356 160 377 181 394 198 c 0
 410 214 431 235 450 235 c 0
 469 235 490 214 506 198 c 0
 523 181 544 160 544 141 c 0
EndSplineSet
EndChar

StartChar: sym097.disp
Encoding: 37 -1 37
Width: 1188
Flags: W
HStem: -6 188<554.251 633.749> 938 86<176 1012>
VStem: 90 86<-474 938> 500 188<47.9263 127.306> 1012 86<-474 938>
CounterMasks: 1 38
LayerCount: 2
Back
Fore
SplineSet
176 -474 m 1
 90 -474 l 1
 90 25 90 525 90 1024 c 1
 1098 1024 l 1
 1098 525 1098 25 1098 -474 c 1
 1012 -474 l 1
 1012 938 l 1
 176 938 l 1
 176 -474 l 1
688 88 m 0
 688 69 667 48 650 31 c 0
 634 15 613 -6 594 -6 c 0
 575 -6 554 15 538 31 c 0
 521 48 500 69 500 88 c 0
 500 107 521 127 538 144 c 0
 554 161 575 182 594 182 c 0
 613 182 634 161 650 144 c 0
 667 127 688 107 688 88 c 0
EndSplineSet
EndChar

StartChar: sym098
Encoding: 38 -1 38
Width: 900
Flags: W
HStem: -260 86<176 724> 315 188<410.251 489.749>
VStem: 90 86<-174 810> 356 188<368.926 448.306> 724 86<-174 810>
CounterMasks: 1 38
LayerCount: 2
Back
Fore
SplineSet
90 810 m 1
 176 810 l 1
 176 -174 l 1
 724 -174 l 1
 724 810 l 1
 810 810 l 1
 810 453 810 97 810 -260 c 1
 90 -260 l 1
 90 97 90 453 90 810 c 1
544 409 m 0
 544 390 523 369 506 352 c 0
 490 336 469 315 450 315 c 0
 431 315 410 336 394 352 c 0
 377 369 356 390 356 409 c 0
 356 428 377 448 394 465 c 0
 410 482 431 503 450 503 c 0
 469 503 490 482 506 465 c 0
 523 448 544 428 544 409 c 0
EndSplineSet
EndChar

StartChar: sym098.disp
Encoding: 39 -1 39
Width: 1188
Flags: W
HStem: -474 86<176 1012> 368 188<554.251 633.749>
VStem: 90 86<-388 1024> 500 188<422.694 502.074> 1012 86<-388 1024>
CounterMasks: 1 38
LayerCount: 2
Back
Fore
SplineSet
90 1024 m 1
 176 1024 l 1
 176 -388 l 1
 1012 -388 l 1
 1012 1024 l 1
 1098 1024 l 1
 1098 525 1098 25 1098 -474 c 1
 90 -474 l 1
 90 25 90 525 90 1024 c 1
688 462 m 0
 688 443 667 423 650 406 c 0
 634 389 613 368 594 368 c 0
 575 368 554 389 538 406 c 0
 521 423 500 443 500 462 c 0
 500 481 521 502 538 519 c 0
 554 535 575 556 594 556 c 0
 613 556 634 535 650 519 c 0
 667 502 688 481 688 462 c 0
EndSplineSet
EndChar

StartChar: sym099
Encoding: 40 -1 40
Width: 900
Flags: W
HStem: 142 86<270 407 493 630> 724 86<176 724>
VStem: 90 86<-260 724> 407 86<5 142 228 365> 724 86<-260 724>
CounterMasks: 1 38
LayerCount: 2
Back
Fore
SplineSet
176 -260 m 1
 90 -260 l 1
 90 97 90 453 90 810 c 1
 810 810 l 1
 810 453 810 97 810 -260 c 1
 724 -260 l 1
 724 724 l 1
 176 724 l 1
 176 -260 l 1
407 365 m 1
 493 365 l 1
 493 228 l 1
 630 228 l 1
 630 142 l 1
 493 142 l 1
 493 5 l 1
 407 5 l 1
 407 142 l 1
 270 142 l 1
 270 228 l 1
 407 228 l 1
 407 365 l 1
EndSplineSet
EndChar

StartChar: sym099.disp
Encoding: 41 -1 41
Width: 1188
Flags: W
HStem: 106 86<342 551 637 846> 938 86<176 1012>
VStem: 90 86<-474 938> 551 86<-103 106 192 401> 1012 86<-474 938>
CounterMasks: 1 38
LayerCount: 2
Back
Fore
SplineSet
176 -474 m 1
 90 -474 l 1
 90 25 90 525 90 1024 c 1
 1098 1024 l 1
 1098 525 1098 25 1098 -474 c 1
 1012 -474 l 1
 1012 938 l 1
 176 938 l 1
 176 -474 l 1
551 401 m 1
 637 401 l 1
 637 192 l 1
 846 192 l 1
 846 106 l 1
 637 106 l 1
 637 -103 l 1
 551 -103 l 1
 551 106 l 1
 342 106 l 1
 342 192 l 1
 551 192 l 1
 551 401 l 1
EndSplineSet
EndChar

StartChar: sym09A
Encoding: 42 -1 42
Width: 900
Flags: W
HStem: -260 86<176 724> 322 86<270 407 493 630> 525 20G<407 493>
VStem: 90 86<-174 810> 407 86<185 322 408 545> 724 86<-174 810>
CounterMasks: 1 1c
LayerCount: 2
Back
Fore
SplineSet
90 810 m 1
 176 810 l 1
 176 -174 l 1
 724 -174 l 1
 724 810 l 1
 810 810 l 1
 810 453 810 97 810 -260 c 1
 90 -260 l 1
 90 97 90 453 90 810 c 1
407 545 m 1
 493 545 l 1
 493 408 l 1
 630 408 l 1
 630 322 l 1
 493 322 l 1
 493 185 l 1
 407 185 l 1
 407 322 l 1
 270 322 l 1
 270 408 l 1
 407 408 l 1
 407 545 l 1
EndSplineSet
EndChar

StartChar: sym09A.disp
Encoding: 43 -1 43
Width: 1188
Flags: W
HStem: -474 86<176 1012> 358 86<342 551 637 846>
VStem: 90 86<-388 1024> 551 86<149 358 444 653> 1012 86<-388 1024>
CounterMasks: 1 38
LayerCount: 2
Back
Fore
SplineSet
90 1024 m 1
 176 1024 l 1
 176 -388 l 1
 1012 -388 l 1
 1012 1024 l 1
 1098 1024 l 1
 1098 525 1098 25 1098 -474 c 1
 90 -474 l 1
 90 25 90 525 90 1024 c 1
551 653 m 1
 637 653 l 1
 637 444 l 1
 846 444 l 1
 846 358 l 1
 637 358 l 1
 637 149 l 1
 551 149 l 1
 551 358 l 1
 342 358 l 1
 342 444 l 1
 551 444 l 1
 551 653 l 1
EndSplineSet
EndChar

StartChar: uni2A01
Encoding: 44 10753 44
Width: 1250
Flags: W
HStem: -260 88<483.148 582 668 766.852> 232 86<178 582 668 1072> 722 88<483.148 582 668 766.852>
VStem: 90 88<133.148 232 318 416.852> 582 86<-172 232 318 722> 1072 88<133.148 232 318 416.852>
CounterMasks: 1 fc
LayerCount: 2
Back
Fore
SplineSet
668 318 m 1
 1072 318 l 1
 1062 421 1017 518 942 592 c 0
 868 667 771 712 668 722 c 1
 668 318 l 1
582 318 m 1
 582 722 l 1
 479 712 382 667 308 592 c 0
 233 518 188 421 178 318 c 1
 582 318 l 1
668 232 m 1
 668 -172 l 1
 771 -162 868 -117 942 -42 c 0
 1017 32 1062 129 1072 232 c 1
 668 232 l 1
582 232 m 1
 178 232 l 1
 188 129 233 32 308 -42 c 0
 382 -117 479 -162 582 -172 c 1
 582 232 l 1
1160 275 m 0
 1160 133 1104 -3 1003 -103 c 0
 903 -204 767 -260 625 -260 c 0
 483 -260 347 -204 247 -103 c 0
 146 -3 90 133 90 275 c 0
 90 417 146 553 247 653 c 0
 347 754 483 810 625 810 c 0
 767 810 903 754 1003 653 c 0
 1104 553 1160 417 1160 275 c 0
EndSplineSet
EndChar

StartChar: uni2A01.disp
Encoding: 45 -1 45
Width: 1678
Flags: W
HStem: -474 87<670.911 796 882 1007.09> 232 86<177 796 882 1501> 937 87<670.911 796 882 1007.09>
VStem: 90 87<106.911 232 318 443.089> 796 86<-387 232 318 937> 1501 87<106.911 232 318 443.089>
CounterMasks: 1 fc
LayerCount: 2
Back
Fore
SplineSet
882 318 m 1
 1501 318 l 1
 1491 478 1422 629 1308 744 c 0
 1193 858 1042 927 882 937 c 1
 882 318 l 1
796 318 m 1
 796 937 l 1
 636 927 485 858 370 744 c 0
 256 629 187 478 177 318 c 1
 796 318 l 1
882 232 m 1
 882 -387 l 1
 1042 -377 1193 -308 1308 -194 c 0
 1422 -79 1491 72 1501 232 c 1
 882 232 l 1
796 232 m 1
 177 232 l 1
 187 72 256 -79 370 -194 c 0
 485 -308 636 -377 796 -387 c 1
 796 232 l 1
1588 275 m 0
 1588 76 1509 -114 1369 -255 c 0
 1228 -395 1038 -474 839 -474 c 0
 640 -474 450 -395 309 -255 c 0
 169 -114 90 76 90 275 c 0
 90 474 169 664 309 805 c 0
 450 945 640 1024 839 1024 c 0
 1038 1024 1228 945 1369 805 c 0
 1509 664 1588 474 1588 275 c 0
EndSplineSet
EndChar

StartChar: uni2A02
Encoding: 46 10754 46
Width: 1250
Flags: W
HStem: -260 86<489.766 760.234> 724 86<489.766 760.234>
VStem: 90 86<139.766 410.234> 1074 86<139.766 410.234>
LayerCount: 2
Back
Fore
SplineSet
625 336 m 1
 910 621 l 1
 830 687 730 724 625 724 c 0
 520 724 420 687 340 621 c 1
 625 336 l 1
564 275 m 1
 279 560 l 1
 213 480 176 380 176 275 c 0
 176 170 213 70 279 -10 c 1
 564 275 l 1
686 275 m 1
 971 -10 l 1
 1037 70 1074 170 1074 275 c 0
 1074 380 1037 480 971 560 c 1
 686 275 l 1
625 214 m 1
 340 -71 l 1
 420 -137 520 -174 625 -174 c 0
 730 -174 830 -137 910 -71 c 1
 625 214 l 1
1160 275 m 0
 1160 133 1104 -3 1003 -103 c 0
 903 -204 767 -260 625 -260 c 0
 483 -260 347 -204 247 -103 c 0
 146 -3 90 133 90 275 c 0
 90 417 146 553 247 653 c 0
 347 754 483 810 625 810 c 0
 767 810 903 754 1003 653 c 0
 1104 553 1160 417 1160 275 c 0
EndSplineSet
EndChar

StartChar: uni2A02.disp
Encoding: 47 -1 47
Width: 1678
Flags: W
HStem: -474 86<674.954 1003.05> 938 86<674.954 1003.05>
VStem: 90 86<110.954 439.046> 1502 86<110.954 439.046>
LayerCount: 2
Back
Fore
SplineSet
839 336 m 1
 1276 773 l 1
 1155 879 1001 938 839 938 c 0
 677 938 523 879 402 773 c 1
 839 336 l 1
778 275 m 1
 341 712 l 1
 235 591 176 437 176 275 c 0
 176 113 235 -41 341 -162 c 1
 778 275 l 1
900 275 m 1
 1337 -162 l 1
 1443 -41 1502 113 1502 275 c 0
 1502 437 1443 591 1337 712 c 1
 900 275 l 1
839 214 m 1
 402 -223 l 1
 523 -329 677 -388 839 -388 c 0
 1001 -388 1155 -329 1276 -223 c 1
 839 214 l 1
1588 275 m 0
 1588 76 1509 -114 1369 -255 c 0
 1228 -395 1038 -474 839 -474 c 0
 640 -474 450 -395 309 -255 c 0
 169 -114 90 76 90 275 c 0
 90 474 169 664 309 805 c 0
 450 945 640 1024 839 1024 c 0
 1038 1024 1228 945 1369 805 c 0
 1509 664 1588 474 1588 275 c 0
EndSplineSet
EndChar

StartChar: uni2A00
Encoding: 48 10752 48
Width: 1250
Flags: W
HStem: -260 86<488.771 761.229> 181 188<585.251 664.749> 724 86<488.771 761.229>
VStem: 90 86<138.771 411.229> 531 188<235.251 314.749> 1074 86<138.771 411.229>
CounterMasks: 1 fc
LayerCount: 2
Back
Fore
SplineSet
1160 275 m 0
 1160 133 1104 -3 1003 -103 c 0
 903 -204 767 -260 625 -260 c 0
 483 -260 347 -204 247 -103 c 0
 146 -3 90 133 90 275 c 0
 90 417 146 553 247 653 c 0
 347 754 483 810 625 810 c 0
 767 810 903 754 1003 653 c 0
 1104 553 1160 417 1160 275 c 0
1074 275 m 0
 1074 394 1027 508 942 592 c 0
 858 677 744 724 625 724 c 0
 506 724 392 677 308 592 c 0
 223 508 176 394 176 275 c 0
 176 156 223 42 308 -42 c 0
 392 -127 506 -174 625 -174 c 0
 744 -174 858 -127 942 -42 c 0
 1027 42 1074 156 1074 275 c 0
719 275 m 0
 719 256 698 235 681 219 c 0
 665 202 644 181 625 181 c 0
 606 181 585 202 569 219 c 0
 552 235 531 256 531 275 c 0
 531 294 552 315 569 331 c 0
 585 348 606 369 625 369 c 0
 644 369 665 348 681 331 c 0
 698 315 719 294 719 275 c 0
EndSplineSet
EndChar

StartChar: uni2A00.disp
Encoding: 49 -1 49
Width: 1678
Flags: W
HStem: -474 86<675.766 1002.23> 181 188<799.251 878.749> 938 86<675.766 1002.23>
VStem: 90 86<111.766 438.234> 745 188<235.251 314.749> 1502 86<111.766 438.234>
CounterMasks: 1 fc
LayerCount: 2
Back
Fore
SplineSet
1588 275 m 0
 1588 76 1509 -114 1369 -255 c 0
 1228 -395 1038 -474 839 -474 c 0
 640 -474 450 -395 309 -255 c 0
 169 -114 90 76 90 275 c 0
 90 474 169 664 309 805 c 0
 450 945 640 1024 839 1024 c 0
 1038 1024 1228 945 1369 805 c 0
 1509 664 1588 474 1588 275 c 0
1502 275 m 0
 1502 451 1432 619 1308 744 c 0
 1183 868 1015 938 839 938 c 0
 663 938 495 868 370 744 c 0
 246 619 176 451 176 275 c 0
 176 99 246 -69 370 -194 c 0
 495 -318 663 -388 839 -388 c 0
 1015 -388 1183 -318 1308 -194 c 0
 1432 -69 1502 99 1502 275 c 0
933 275 m 0
 933 256 912 235 895 219 c 0
 879 202 858 181 839 181 c 0
 820 181 799 202 783 219 c 0
 766 235 745 256 745 275 c 0
 745 294 766 315 783 331 c 0
 799 348 820 369 839 369 c 0
 858 369 879 348 895 331 c 0
 912 315 933 294 933 275 c 0
EndSplineSet
EndChar

StartChar: sym09B
Encoding: 50 -1 50
Width: 1250
Flags: W
HStem: -260 89<481.908 569 681 768.092> 721 89<481.908 569 681 768.092>
VStem: 90 86<137.927 412.073> 569 112<-171 62.5455 487.455 721> 580 90<-37.1818 196 354 587.182> 1074 86<137.927 412.073>
LayerCount: 2
Back
Fore
SplineSet
670 353 m 1xec
 982 546 l 1
 970 562 957 578 942 592 c 0
 871 664 779 709 681 721 c 1xf4
 670 353 l 1xec
580 354 m 1xec
 569 721 l 1xf4
 471 709 379 664 308 592 c 0
 293 578 280 562 268 546 c 1
 580 354 l 1xec
535 275 m 1
 211 449 l 1
 188 394 176 335 176 275 c 0
 176 215 188 156 211 101 c 1
 535 275 l 1
580 196 m 1xec
 268 4 l 1
 280 -12 293 -28 308 -42 c 0
 379 -114 471 -159 569 -171 c 1xf4
 580 196 l 1xec
670 197 m 1xec
 681 -171 l 1xf4
 779 -159 871 -114 942 -42 c 0
 957 -28 970 -12 982 4 c 1
 670 197 l 1xec
716 275 m 1
 1039 101 l 1
 1062 156 1074 215 1074 275 c 0
 1074 335 1062 394 1039 449 c 1
 716 275 l 1
1160 275 m 0
 1160 133 1104 -3 1003 -103 c 0
 903 -204 767 -260 625 -260 c 0
 483 -260 347 -204 247 -103 c 0
 146 -3 90 133 90 275 c 0
 90 417 146 553 247 653 c 0
 347 754 483 810 625 810 c 0
 767 810 903 754 1003 653 c 0
 1104 553 1160 417 1160 275 c 0
EndSplineSet
EndChar

StartChar: sym09B.disp
Encoding: 51 -1 51
Width: 1678
Flags: W
HStem: -474 88<665.192 783 895 1012.81> 936 88<665.192 783 895 1012.81>
VStem: 90 86<109.254 440.746> 783 112<-386 -14.3636 564.364 936> 794 90<-173.636 198 352 723.636> 1502 86<109.254 440.746>
LayerCount: 2
Back
Fore
SplineSet
884 352 m 1xec
 1383 654 l 1
 1361 686 1336 716 1308 744 c 0
 1196 855 1050 923 895 936 c 1xf4
 884 352 l 1xec
794 352 m 1xec
 783 936 l 1xf4
 628 923 482 855 370 744 c 0
 342 716 317 686 295 654 c 1
 794 352 l 1xec
750 275 m 1
 239 556 l 1
 198 469 176 373 176 275 c 0
 176 177 198 81 239 -6 c 1
 750 275 l 1
794 198 m 1xec
 295 -104 l 1
 317 -136 342 -166 370 -194 c 0
 482 -305 628 -373 783 -386 c 1xf4
 794 198 l 1xec
884 198 m 1xec
 895 -386 l 1xf4
 1050 -373 1196 -305 1308 -194 c 0
 1336 -166 1361 -136 1383 -104 c 1
 884 198 l 1xec
927 275 m 1
 1439 -6 l 1
 1480 81 1502 177 1502 275 c 0
 1502 373 1480 469 1439 556 c 1
 927 275 l 1
1588 275 m 0
 1588 76 1509 -114 1369 -255 c 0
 1228 -395 1038 -474 839 -474 c 0
 640 -474 450 -395 309 -255 c 0
 169 -114 90 76 90 275 c 0
 90 474 169 664 309 805 c 0
 450 945 640 1024 839 1024 c 0
 1038 1024 1228 945 1369 805 c 0
 1509 664 1588 474 1588 275 c 0
EndSplineSet
EndChar

StartChar: product
Encoding: 52 8719 52
Width: 1080
Flags: W
HStem: -260 53<99 161.624 382.376 445 635 697.624 918.376 981> 724 86<331 749> 756 54<93 165.321 914.679 987>
VStem: 213 118<-171.564 721.241> 749 118<-171.564 721.241>
LayerCount: 2
Back
Fore
SplineSet
99 -260 m 1xd8
 90 -207 l 1
 142 -193 213 -174 213 -145 c 2
 213 694 l 2
 213 724 144 743 93 756 c 1
 90 810 l 1
 990 810 l 1
 987 756 l 1xb8
 936 743 867 724 867 694 c 2
 867 -145 l 2
 867 -174 938 -193 990 -207 c 1
 981 -260 l 1
 635 -260 l 1
 626 -207 l 1
 678 -193 749 -174 749 -145 c 2
 749 724 l 1
 331 724 l 1
 331 -145 l 2
 331 -174 402 -193 454 -207 c 1
 445 -260 l 1
 99 -260 l 1xd8
EndSplineSet
EndChar

StartChar: product.disp
Encoding: 53 -1 53
Width: 1440
Flags: W
HStem: -474 58<100 162.868 413.132 476 964 1026.87 1277.13 1340> 930 94<352 1088> 966 58<93 164.355 1275.65 1347>
VStem: 224 128<-376.871 926.568> 1088 128<-376.871 926.568>
LayerCount: 2
Back
Fore
SplineSet
100 -474 m 1xd8
 90 -416 l 1
 147 -401 224 -381 224 -349 c 2
 224 898 l 2
 224 931 149 951 93 966 c 1
 90 1024 l 1
 1350 1024 l 1
 1347 966 l 1xb8
 1291 951 1216 931 1216 898 c 2
 1216 -349 l 2
 1216 -381 1293 -401 1350 -416 c 1
 1340 -474 l 1
 964 -474 l 1
 954 -416 l 1
 1011 -401 1088 -381 1088 -349 c 2
 1088 930 l 1
 352 930 l 1
 352 -349 l 2
 352 -381 429 -401 486 -416 c 1
 476 -474 l 1
 100 -474 l 1xd8
EndSplineSet
EndChar

StartChar: product.sf
Encoding: 54 -1 54
Width: 1080
Flags: W
HStem: 695 115<90 212 327 753 868 990>
VStem: 212 115<-260 695> 753 115<-260 695>
LayerCount: 2
Back
Fore
SplineSet
212 -260 m 1
 212 695 l 1
 90 695 l 1
 90 810 l 1
 990 810 l 1
 990 695 l 1
 868 695 l 1
 868 -260 l 1
 753 -260 l 1
 753 695 l 1
 327 695 l 1
 327 -260 l 1
 212 -260 l 1
EndSplineSet
EndChar

StartChar: product.sf.disp
Encoding: 55 -1 55
Width: 1440
Flags: W
HStem: 899 125<90 223 348 1092 1217 1350>
VStem: 223 125<-474 899> 1092 125<-474 899>
LayerCount: 2
Back
Fore
SplineSet
223 -474 m 1
 223 899 l 1
 90 899 l 1
 90 1024 l 1
 1350 1024 l 1
 1350 899 l 1
 1217 899 l 1
 1217 -474 l 1
 1092 -474 l 1
 1092 899 l 1
 348 899 l 1
 348 -474 l 1
 223 -474 l 1
EndSplineSet
EndChar

StartChar: uni2210
Encoding: 56 8720 56
Width: 1080
Flags: W
HStem: -260 86<331 749> -260 54<93 165.321 914.679 987> 757 53<99 161.624 382.376 445 635 697.624 918.376 981>
VStem: 213 118<-171.241 721.564> 749 118<-171.241 721.564>
LayerCount: 2
Back
Fore
SplineSet
99 810 m 1x78
 445 810 l 1
 454 757 l 1
 402 743 331 724 331 695 c 2
 331 -174 l 1
 749 -174 l 1xb8
 749 695 l 2
 749 724 678 743 626 757 c 1
 635 810 l 1
 981 810 l 1
 990 757 l 1
 938 743 867 724 867 695 c 2
 867 -144 l 2
 867 -174 936 -193 987 -206 c 1
 990 -260 l 1
 90 -260 l 1
 93 -206 l 1
 144 -193 213 -174 213 -144 c 2
 213 695 l 2
 213 724 142 743 90 757 c 1
 99 810 l 1x78
EndSplineSet
EndChar

StartChar: uni2210.disp
Encoding: 57 -1 57
Width: 1440
Flags: W
HStem: -474 94<352 1088> -474 58<93 164.355 1275.65 1347> 966 58<100 162.868 413.132 476 964 1026.87 1277.13 1340>
VStem: 224 128<-376.568 926.871> 1088 128<-376.568 926.871>
LayerCount: 2
Back
Fore
SplineSet
100 1024 m 1x78
 476 1024 l 1
 486 966 l 1
 429 951 352 931 352 899 c 2
 352 -380 l 1
 1088 -380 l 1xb8
 1088 899 l 2
 1088 931 1011 951 954 966 c 1
 964 1024 l 1
 1340 1024 l 1
 1350 966 l 1
 1293 951 1216 931 1216 899 c 2
 1216 -348 l 2
 1216 -381 1291 -401 1347 -416 c 1
 1350 -474 l 1
 90 -474 l 1
 93 -416 l 1
 149 -401 224 -381 224 -348 c 2
 224 899 l 2
 224 931 147 951 90 966 c 1
 100 1024 l 1x78
EndSplineSet
EndChar

StartChar: uni2210.sf
Encoding: 58 -1 58
Width: 1080
Flags: W
HStem: -260 115<90 212 327 753 868 990>
VStem: 212 115<-145 810> 753 115<-145 810>
LayerCount: 2
Back
Fore
SplineSet
212 810 m 1
 327 810 l 1
 327 -145 l 1
 753 -145 l 1
 753 810 l 1
 868 810 l 1
 868 -145 l 1
 990 -145 l 1
 990 -260 l 1
 90 -260 l 1
 90 -145 l 1
 212 -145 l 1
 212 810 l 1
EndSplineSet
EndChar

StartChar: uni2210.sf.disp
Encoding: 59 -1 59
Width: 1440
Flags: W
HStem: -474 125<90 223 348 1092 1217 1350>
VStem: 223 125<-349 1024> 1092 125<-349 1024>
LayerCount: 2
Back
Fore
SplineSet
223 1024 m 1
 348 1024 l 1
 348 -349 l 1
 1092 -349 l 1
 1092 1024 l 1
 1217 1024 l 1
 1217 -349 l 1
 1350 -349 l 1
 1350 -474 l 1
 90 -474 l 1
 90 -349 l 1
 223 -349 l 1
 223 1024 l 1
EndSplineSet
EndChar

StartChar: summation
Encoding: 60 8721 60
Width: 900
Flags: W
HStem: 731 79<241 695.797>
VStem: 767 43<633 668.613>
LayerCount: 2
Back
Fore
SplineSet
110 -260 m 1
 90 -174 l 1
 377 262 l 1
 90 714 l 1
 112 810 l 1
 810 810 l 1
 810 633 l 1
 767 633 l 1
 743 688 690 726 630 727 c 2
 241 731 l 1
 523 288 l 1
 219 -174 l 1
 610 -150 l 2
 685 -145 775 -140 789 -78 c 1
 831 -87 l 1
 783 -260 l 1
 110 -260 l 1
EndSplineSet
EndChar

StartChar: summation.disp
Encoding: 61 -1 61
Width: 1188
Flags: W
HStem: -474 120<663.808 1008.22> -474 94<229 389.192> 938 86<253 954.344>
VStem: 1051 47<831 865.883> 1075 46<-308.106 -284.478>
LayerCount: 2
Back
Fore
SplineSet
112 -474 m 1x68
 90 -380 l 1
 515 261 l 1
 90 920 l 1
 114 1024 l 1
 1098 1024 l 1
 1098 831 l 1
 1051 831 l 1
 1019 907 931 933 846 934 c 2
 253 938 l 1
 673 289 l 1
 229 -380 l 1x70
 824 -354 l 2xb0
 927 -350 1060 -344 1075 -276 c 1
 1121 -286 l 1
 1068 -474 l 1
 112 -474 l 1x68
EndSplineSet
EndChar

StartChar: summation.sf
Encoding: 62 -1 62
Width: 900
Flags: W
HStem: -260 118<238 810> 692 118<238 810>
LayerCount: 2
Back
Fore
SplineSet
90 -260 m 1
 90 -142 l 1
 376 275 l 1
 90 692 l 1
 90 810 l 1
 810 810 l 1
 810 692 l 1
 238 692 l 1
 524 275 l 1
 238 -142 l 1
 810 -142 l 1
 810 -260 l 1
 90 -260 l 1
EndSplineSet
EndChar

StartChar: summation.sf.disp
Encoding: 63 -1 63
Width: 1188
Flags: W
HStem: -474 129<250 1098> 895 129<250 1098>
LayerCount: 2
Back
Fore
SplineSet
90 -474 m 1
 90 -345 l 1
 514 275 l 1
 90 895 l 1
 90 1024 l 1
 1098 1024 l 1
 1098 895 l 1
 250 895 l 1
 674 275 l 1
 250 -345 l 1
 1098 -345 l 1
 1098 -474 l 1
 90 -474 l 1
EndSplineSet
EndChar

StartChar: uni2A0A
Encoding: 64 10762 64
Width: 900
Flags: W
HStem: 52 86<426.484 523.577> 412 86<444.657 522.628> 731 79<241 695.797>
VStem: 227 86<200.889 337.136> 587 86<201.423 348.577> 767 43<633 668.613>
LayerCount: 2
Back
Fore
SplineSet
328 338 m 1
 318 318 313 297 313 275 c 0
 313 248 321 221 336 199 c 1
 377 262 l 1
 328 338 l 1
673 275 m 0
 673 216 650 159 608 117 c 0
 566 75 509 52 450 52 c 0
 425 52 400 56 376 64 c 1
 219 -174 l 1
 610 -150 l 2
 685 -145 775 -140 789 -78 c 1
 831 -87 l 1
 783 -260 l 1
 110 -260 l 1
 90 -174 l 1
 286 123 l 1
 248 164 227 219 227 275 c 0
 227 327 245 378 278 418 c 1
 90 714 l 1
 112 810 l 1
 810 810 l 1
 810 633 l 1
 767 633 l 1
 743 688 690 726 630 727 c 2
 241 731 l 1
 394 491 l 1
 412 496 431 498 450 498 c 0
 509 498 566 475 608 433 c 0
 650 391 673 334 673 275 c 0
587 275 m 0
 587 311 573 346 547 372 c 0
 521 398 486 412 450 412 c 0
 448 412 446 412 444 412 c 1
 523 288 l 1
 426 140 l 1
 434 139 442 138 450 138 c 0
 486 138 521 152 547 178 c 0
 573 204 587 239 587 275 c 0
EndSplineSet
EndChar

StartChar: uni2A0A.disp
Encoding: 65 -1 65
Width: 1188
Flags: W
HStem: -474 120<663.808 1008.22> -474 94<229 389.192> -70 94<507.734 695.098> 526 94<526.675 695.098> 938 86<253 954.344>
VStem: 249 94<173.145 379.023> 845 94<173.902 376.098> 1051 47<831 865.883> 1075 46<-308.106 -284.478>
LayerCount: 2
Back
Fore
SplineSet
401 437 m 1x3e
 363 392 343 335 343 275 c 0
 343 211 367 149 410 103 c 1
 515 261 l 1
 401 437 l 1x3e
358 24 m 1
 290 88 249 180 249 275 c 0
 249 366 285 453 349 518 c 1
 90 920 l 1
 114 1024 l 1
 1098 1024 l 1
 1098 831 l 1
 1051 831 l 1
 1019 907 931 933 846 934 c 2
 253 938 l 1
 473 598 l 1
 511 612 552 620 594 620 c 0
 685 620 773 584 838 519 c 0
 903 454 939 366 939 275 c 0
 939 184 903 96 838 31 c 0
 773 -34 685 -70 594 -70 c 0
 546 -70 498 -59 454 -40 c 1
 229 -380 l 1x7f
 824 -354 l 2xbf
 927 -350 1060 -344 1075 -276 c 1
 1121 -286 l 1
 1068 -474 l 1
 112 -474 l 1
 90 -380 l 1x7e80
 358 24 l 1
845 275 m 0
 845 342 819 406 772 453 c 0
 725 500 661 526 594 526 c 0
 571 526 548 523 526 517 c 1
 673 289 l 1
 507 39 l 1
 535 29 564 24 594 24 c 0
 661 24 725 50 772 97 c 0
 819 144 845 208 845 275 c 0
EndSplineSet
EndChar

StartChar: uni2A0A.sf
Encoding: 66 -1 66
Width: 900
Flags: W
HStem: -260 118<238 810> 52 86<431.649 523.577> 412 86<431.649 523.577> 692 118<238 810>
VStem: 227 86<208.551 341.449> 587 86<201.423 348.577>
LayerCount: 2
Back
Fore
SplineSet
330 342 m 1
 319 322 313 298 313 275 c 0
 313 252 319 228 330 208 c 1
 376 275 l 1
 330 342 l 1
673 275 m 0
 673 216 650 159 608 117 c 0
 566 75 509 52 450 52 c 0
 426 52 402 55 379 63 c 1
 238 -142 l 1
 810 -142 l 1
 810 -260 l 1
 90 -260 l 1
 90 -142 l 1
 278 132 l 1
 245 172 227 223 227 275 c 0
 227 327 245 378 278 418 c 1
 90 692 l 1
 90 810 l 1
 810 810 l 1
 810 692 l 1
 238 692 l 1
 379 487 l 1
 402 495 426 498 450 498 c 0
 509 498 566 475 608 433 c 0
 650 391 673 334 673 275 c 0
587 275 m 0
 587 311 573 346 547 372 c 0
 521 398 486 412 450 412 c 0
 444 412 437 412 431 411 c 1
 524 275 l 1
 431 139 l 1
 437 138 444 138 450 138 c 0
 486 138 521 152 547 178 c 0
 573 204 587 239 587 275 c 0
EndSplineSet
EndChar

StartChar: uni2A0A.sf.disp
Encoding: 67 -1 67
Width: 1188
Flags: W
HStem: -474 129<250 1098> -70 94<513.239 695.098> 526 94<513.239 695.098> 895 129<250 1098>
VStem: 249 94<172.29 377.71> 845 94<173.902 376.098>
LayerCount: 2
Back
Fore
SplineSet
402 438 m 1
 364 393 343 335 343 275 c 0
 343 215 364 157 402 112 c 1
 514 275 l 1
 402 438 l 1
939 275 m 0
 939 184 903 96 838 31 c 0
 773 -34 685 -70 594 -70 c 0
 547 -70 500 -60 457 -42 c 1
 250 -345 l 1
 1098 -345 l 1
 1098 -474 l 1
 90 -474 l 1
 90 -345 l 1
 348 33 l 1
 284 98 249 185 249 275 c 0
 249 365 284 452 348 517 c 1
 90 895 l 1
 90 1024 l 1
 1098 1024 l 1
 1098 895 l 1
 250 895 l 1
 457 592 l 1
 500 610 547 620 594 620 c 0
 685 620 773 584 838 519 c 0
 903 454 939 366 939 275 c 0
845 275 m 0
 845 342 819 406 772 453 c 0
 725 500 661 526 594 526 c 0
 566 526 538 521 512 512 c 1
 674 275 l 1
 512 38 l 1
 538 29 566 24 594 24 c 0
 661 24 725 50 772 97 c 0
 819 144 845 208 845 275 c 0
EndSplineSet
EndChar

StartChar: integral
Encoding: 68 8747 68
Width: 485
Flags: W
HStem: -328 96<115 201.532> 785 93<393.763 484.25>
VStem: 243 114<-183.297 746.024>
LayerCount: 2
Back
Fore
SplineSet
510 871 m 1
 485 778 l 1
 469 782 453 785 436 785 c 0
 378 785 357 714 357 647 c 2
 357 -91 l 2
 357 -222 251 -328 120 -328 c 0
 118 -328 117 -328 115 -328 c 1
 101 -232 l 1
 152 -232 l 2
 214 -232 243 -161 243 -91 c 2
 243 647 l 2
 243 772 337 878 459 878 c 0
 460 878 460 878 461 878 c 0
 478 878 494 876 510 871 c 1
EndSplineSet
EndChar

StartChar: integral.disp
Encoding: 69 -1 69
Width: 699
Flags: W
HStem: -811 111<124 260.033> 1253 108<652.109 815.073>
VStem: 402 132<-534.304 1095.28>
LayerCount: 2
Back
Fore
SplineSet
402 964 m 2
 402 1174 556 1361 768 1361 c 0
 792 1361 817 1358 841 1352 c 1
 812 1244 l 1
 785 1250 757 1253 729 1253 c 0
 600 1253 534 1109 534 964 c 2
 534 -407 l 2
 534 -631 353 -811 131 -811 c 0
 129 -811 126 -811 124 -811 c 1
 108 -700 l 1
 193 -700 l 2
 326 -700 402 -555 402 -407 c 2
 402 964 l 2
EndSplineSet
EndChar

StartChar: uni222C
Encoding: 70 8748 70
Width: 785
Flags: W
HStem: -328 96<115 201.532 415 501.532> 778 93<461.796 486.882 761.796 786.882> 785 93<393.763 484.25 693.763 784.25>
VStem: 243 114<-183.297 746.024> 543 114<-183.297 746.024>
LayerCount: 2
Back
Fore
SplineSet
510 871 m 1xd8
 485 778 l 1xd8
 469 782 453 785 436 785 c 0
 378 785 357 714 357 647 c 2
 357 -91 l 2
 357 -222 251 -328 120 -328 c 0
 118 -328 117 -328 115 -328 c 1
 101 -232 l 1
 152 -232 l 2
 214 -232 243 -161 243 -91 c 2
 243 647 l 2
 243 772 337 878 459 878 c 0
 460 878 460 878 461 878 c 0xb8
 478 878 494 876 510 871 c 1xd8
810 871 m 1
 785 778 l 1xd8
 769 782 753 785 736 785 c 0
 678 785 657 714 657 647 c 2
 657 -91 l 2
 657 -222 551 -328 420 -328 c 0
 418 -328 417 -328 415 -328 c 1
 401 -232 l 1
 452 -232 l 2
 514 -232 543 -161 543 -91 c 2
 543 647 l 2
 543 772 637 878 759 878 c 0
 760 878 760 878 761 878 c 0xb8
 778 878 794 876 810 871 c 1
EndSplineSet
EndChar

StartChar: uni222C.disp
Encoding: 71 -1 71
Width: 1239
Flags: W
HStem: -811 111<124 260.033 664 800.033> 1244 108<769.126 813.88 1309.13 1353.88> 1253 108<652.109 815.073 1192.11 1355.07>
VStem: 402 132<-534.304 1095.28> 942 132<-534.304 1095.28>
LayerCount: 2
Back
Fore
SplineSet
402 964 m 2xb8
 402 1174 556 1361 768 1361 c 0xb8
 792 1361 817 1358 841 1352 c 1
 812 1244 l 1xd8
 785 1250 757 1253 729 1253 c 0
 600 1253 534 1109 534 964 c 2
 534 -407 l 2
 534 -631 353 -811 131 -811 c 0
 129 -811 126 -811 124 -811 c 1
 108 -700 l 1
 193 -700 l 2
 326 -700 402 -555 402 -407 c 2
 402 964 l 2xb8
942 964 m 2
 942 1174 1096 1361 1308 1361 c 0xb8
 1332 1361 1357 1358 1381 1352 c 1
 1352 1244 l 1xd8
 1325 1250 1297 1253 1269 1253 c 0
 1140 1253 1074 1109 1074 964 c 2
 1074 -407 l 2
 1074 -631 893 -811 671 -811 c 0
 669 -811 666 -811 664 -811 c 1
 648 -700 l 1
 733 -700 l 2
 866 -700 942 -555 942 -407 c 2
 942 964 l 2
EndSplineSet
EndChar

StartChar: uni222D
Encoding: 72 8749 72
Width: 1085
Flags: W
HStem: -328 96<115 201.532 415 501.532 715 801.532> 778 93<461.796 486.882 761.796 786.882 1061.8 1086.88> 785 93<393.763 484.25 693.763 784.25 993.763 1084.25>
VStem: 243 114<-183.297 746.024> 543 114<-183.297 746.024> 843 114<-183.297 746.024>
CounterMasks: 1 1c
LayerCount: 2
Back
Fore
SplineSet
510 871 m 1xdc
 485 778 l 1xdc
 469 782 453 785 436 785 c 0
 378 785 357 714 357 647 c 2
 357 -91 l 2
 357 -222 251 -328 120 -328 c 0
 118 -328 117 -328 115 -328 c 1
 101 -232 l 1
 152 -232 l 2
 214 -232 243 -161 243 -91 c 2
 243 647 l 2
 243 772 337 878 459 878 c 0
 460 878 460 878 461 878 c 0xbc
 478 878 494 876 510 871 c 1xdc
810 871 m 1
 785 778 l 1xdc
 769 782 753 785 736 785 c 0
 678 785 657 714 657 647 c 2
 657 -91 l 2
 657 -222 551 -328 420 -328 c 0
 418 -328 417 -328 415 -328 c 1
 401 -232 l 1
 452 -232 l 2
 514 -232 543 -161 543 -91 c 2
 543 647 l 2
 543 772 637 878 759 878 c 0
 760 878 760 878 761 878 c 0xbc
 778 878 794 876 810 871 c 1
1110 871 m 1
 1085 778 l 1xdc
 1069 782 1053 785 1036 785 c 0
 978 785 957 714 957 647 c 2
 957 -91 l 2
 957 -222 851 -328 720 -328 c 0
 718 -328 717 -328 715 -328 c 1
 701 -232 l 1
 752 -232 l 2
 814 -232 843 -161 843 -91 c 2
 843 647 l 2
 843 772 937 878 1059 878 c 0
 1060 878 1060 878 1061 878 c 0xbc
 1078 878 1094 876 1110 871 c 1
EndSplineSet
EndChar

StartChar: uni222D.disp
Encoding: 73 -1 73
Width: 1779
Flags: W
HStem: -811 111<124 260.033 664 800.033 1204 1340.03> 1244 108<769.126 813.88 1309.13 1353.88 1849.13 1893.88> 1253 108<652.109 815.073 1192.11 1355.07 1732.11 1895.07>
VStem: 402 132<-534.304 1095.28> 942 132<-534.304 1095.28> 1482 132<-534.304 1095.28>
CounterMasks: 1 1c
LayerCount: 2
Back
Fore
SplineSet
402 964 m 2xbc
 402 1174 556 1361 768 1361 c 0xbc
 792 1361 817 1358 841 1352 c 1
 812 1244 l 1xdc
 785 1250 757 1253 729 1253 c 0
 600 1253 534 1109 534 964 c 2
 534 -407 l 2
 534 -631 353 -811 131 -811 c 0
 129 -811 126 -811 124 -811 c 1
 108 -700 l 1
 193 -700 l 2
 326 -700 402 -555 402 -407 c 2
 402 964 l 2xbc
942 964 m 2
 942 1174 1096 1361 1308 1361 c 0xbc
 1332 1361 1357 1358 1381 1352 c 1
 1352 1244 l 1xdc
 1325 1250 1297 1253 1269 1253 c 0
 1140 1253 1074 1109 1074 964 c 2
 1074 -407 l 2
 1074 -631 893 -811 671 -811 c 0
 669 -811 666 -811 664 -811 c 1
 648 -700 l 1
 733 -700 l 2
 866 -700 942 -555 942 -407 c 2
 942 964 l 2
1482 964 m 2
 1482 1174 1636 1361 1848 1361 c 0xbc
 1872 1361 1897 1358 1921 1352 c 1
 1892 1244 l 1xdc
 1865 1250 1837 1253 1809 1253 c 0
 1680 1253 1614 1109 1614 964 c 2
 1614 -407 l 2
 1614 -631 1433 -811 1211 -811 c 0
 1209 -811 1206 -811 1204 -811 c 1
 1188 -700 l 1
 1273 -700 l 2
 1406 -700 1482 -555 1482 -407 c 2
 1482 964 l 2
EndSplineSet
EndChar

StartChar: uni2A0C
Encoding: 74 10764 74
Width: 1385
Flags: W
HStem: -328 96<115 201.532 415 501.532 715 801.532 1015 1101.53> 778 93<461.796 486.882 761.796 786.882 1061.8 1086.88 1361.8 1386.88> 785 93<393.763 484.25 693.763 784.25 993.763 1084.25 1293.76 1384.25>
VStem: 243 114<-183.297 746.024> 543 114<-183.297 746.024> 843 114<-183.297 746.024> 1143 114<-183.297 746.024>
LayerCount: 2
Back
Fore
SplineSet
510 871 m 1xde
 485 778 l 1xde
 469 782 453 785 436 785 c 0
 378 785 357 714 357 647 c 2
 357 -91 l 2
 357 -222 251 -328 120 -328 c 0
 118 -328 117 -328 115 -328 c 1
 101 -232 l 1
 152 -232 l 2
 214 -232 243 -161 243 -91 c 2
 243 647 l 2
 243 772 337 878 459 878 c 0
 460 878 460 878 461 878 c 0xbe
 478 878 494 876 510 871 c 1xde
810 871 m 1
 785 778 l 1xde
 769 782 753 785 736 785 c 0
 678 785 657 714 657 647 c 2
 657 -91 l 2
 657 -222 551 -328 420 -328 c 0
 418 -328 417 -328 415 -328 c 1
 401 -232 l 1
 452 -232 l 2
 514 -232 543 -161 543 -91 c 2
 543 647 l 2
 543 772 637 878 759 878 c 0
 760 878 760 878 761 878 c 0xbe
 778 878 794 876 810 871 c 1
1110 871 m 1
 1085 778 l 1xde
 1069 782 1053 785 1036 785 c 0
 978 785 957 714 957 647 c 2
 957 -91 l 2
 957 -222 851 -328 720 -328 c 0
 718 -328 717 -328 715 -328 c 1
 701 -232 l 1
 752 -232 l 2
 814 -232 843 -161 843 -91 c 2
 843 647 l 2
 843 772 937 878 1059 878 c 0
 1060 878 1060 878 1061 878 c 0xbe
 1078 878 1094 876 1110 871 c 1
1410 871 m 1
 1385 778 l 1xde
 1369 782 1353 785 1336 785 c 0
 1278 785 1257 714 1257 647 c 2
 1257 -91 l 2
 1257 -222 1151 -328 1020 -328 c 0
 1018 -328 1017 -328 1015 -328 c 1
 1001 -232 l 1
 1052 -232 l 2
 1114 -232 1143 -161 1143 -91 c 2
 1143 647 l 2
 1143 772 1237 878 1359 878 c 0
 1360 878 1360 878 1361 878 c 0xbe
 1378 878 1394 876 1410 871 c 1
EndSplineSet
EndChar

StartChar: uni2A0C.disp
Encoding: 75 -1 75
Width: 2319
Flags: W
HStem: -811 111<124 260.033 664 800.033 1204 1340.03 1744 1880.03> 1244 108<769.126 813.88 1309.13 1353.88 1849.13 1893.88 2389.13 2433.88> 1253 108<652.109 815.073 1192.11 1355.07 1732.11 1895.07 2272.11 2435.07>
VStem: 402 132<-534.304 1095.28> 942 132<-534.304 1095.28> 1482 132<-534.304 1095.28> 2022 132<-534.304 1095.28>
LayerCount: 2
Back
Fore
SplineSet
402 964 m 2xbe
 402 1174 556 1361 768 1361 c 0xbe
 792 1361 817 1358 841 1352 c 1
 812 1244 l 1xde
 785 1250 757 1253 729 1253 c 0
 600 1253 534 1109 534 964 c 2
 534 -407 l 2
 534 -631 353 -811 131 -811 c 0
 129 -811 126 -811 124 -811 c 1
 108 -700 l 1
 193 -700 l 2
 326 -700 402 -555 402 -407 c 2
 402 964 l 2xbe
942 964 m 2
 942 1174 1096 1361 1308 1361 c 0xbe
 1332 1361 1357 1358 1381 1352 c 1
 1352 1244 l 1xde
 1325 1250 1297 1253 1269 1253 c 0
 1140 1253 1074 1109 1074 964 c 2
 1074 -407 l 2
 1074 -631 893 -811 671 -811 c 0
 669 -811 666 -811 664 -811 c 1
 648 -700 l 1
 733 -700 l 2
 866 -700 942 -555 942 -407 c 2
 942 964 l 2
1482 964 m 2
 1482 1174 1636 1361 1848 1361 c 0xbe
 1872 1361 1897 1358 1921 1352 c 1
 1892 1244 l 1xde
 1865 1250 1837 1253 1809 1253 c 0
 1680 1253 1614 1109 1614 964 c 2
 1614 -407 l 2
 1614 -631 1433 -811 1211 -811 c 0
 1209 -811 1206 -811 1204 -811 c 1
 1188 -700 l 1
 1273 -700 l 2
 1406 -700 1482 -555 1482 -407 c 2
 1482 964 l 2
2022 964 m 2
 2022 1174 2176 1361 2388 1361 c 0xbe
 2412 1361 2437 1358 2461 1352 c 1
 2432 1244 l 1xde
 2405 1250 2377 1253 2349 1253 c 0
 2220 1253 2154 1109 2154 964 c 2
 2154 -407 l 2
 2154 -631 1973 -811 1751 -811 c 0
 1749 -811 1746 -811 1744 -811 c 1
 1728 -700 l 1
 1813 -700 l 2
 1946 -700 2022 -555 2022 -407 c 2
 2022 964 l 2
EndSplineSet
EndChar

StartChar: uni222B22EF222B
Encoding: 76 -1 76
Width: 1931
Flags: W
HStem: -328 96<115 201.532 1411 1497.53> 184 188<584.251 663.749 908.251 987.749 1232.25 1311.75> 778 93<461.796 486.882 1757.8 1782.88> 785 93<393.763 484.25 1689.76 1780.25>
VStem: 243 114<-183.297 746.024> 530 188<238.251 317.749> 854 188<238.251 317.749> 1178 188<238.251 317.749> 1539 114<-183.297 746.024>
LayerCount: 2
Back
Fore
SplineSet
510 871 m 1xef80
 485 778 l 1xef80
 469 782 453 785 436 785 c 0
 378 785 357 714 357 647 c 2
 357 -91 l 2
 357 -222 251 -328 120 -328 c 0
 118 -328 117 -328 115 -328 c 1
 101 -232 l 1
 152 -232 l 2
 214 -232 243 -161 243 -91 c 2
 243 647 l 2
 243 772 337 878 459 878 c 0
 460 878 460 878 461 878 c 0xdf80
 478 878 494 876 510 871 c 1xef80
1806 871 m 1
 1781 778 l 1xef80
 1765 782 1749 785 1732 785 c 0
 1674 785 1653 714 1653 647 c 2
 1653 -91 l 2
 1653 -222 1547 -328 1416 -328 c 0
 1414 -328 1413 -328 1411 -328 c 1
 1397 -232 l 1
 1448 -232 l 2
 1510 -232 1539 -161 1539 -91 c 2
 1539 647 l 2
 1539 772 1633 878 1755 878 c 0
 1756 878 1756 878 1757 878 c 0xdf80
 1774 878 1790 876 1806 871 c 1
718 278 m 0
 718 259 697 238 680 222 c 0
 664 205 643 184 624 184 c 0
 605 184 584 205 568 222 c 0
 551 238 530 259 530 278 c 0
 530 297 551 318 568 334 c 0
 584 351 605 372 624 372 c 0
 643 372 664 351 680 334 c 0
 697 318 718 297 718 278 c 0
1042 278 m 0
 1042 259 1021 238 1004 222 c 0
 988 205 967 184 948 184 c 0
 929 184 908 205 892 222 c 0
 875 238 854 259 854 278 c 0
 854 297 875 318 892 334 c 0
 908 351 929 372 948 372 c 0
 967 372 988 351 1004 334 c 0
 1021 318 1042 297 1042 278 c 0
1366 278 m 0
 1366 259 1345 238 1328 222 c 0
 1312 205 1291 184 1272 184 c 0
 1253 184 1232 205 1216 222 c 0
 1199 238 1178 259 1178 278 c 0
 1178 297 1199 318 1216 334 c 0
 1232 351 1253 372 1272 372 c 0
 1291 372 1312 351 1328 334 c 0
 1345 318 1366 297 1366 278 c 0
EndSplineSet
EndChar

StartChar: uni222B22EF222B.disp
Encoding: 77 -1 77
Width: 2385
Flags: W
HStem: -811 111<124 260.033 1540 1676.03> 185 188<782.251 861.749 1136.25 1215.75 1490.25 1569.75> 1244 108<769.126 813.88 2185.13 2229.88> 1253 108<652.109 815.073 2068.11 2231.07>
VStem: 402 132<-534.304 1095.28> 728 188<238.926 318.104> 1082 188<238.926 318.104> 1436 188<238.926 318.104> 1818 132<-534.304 1095.28>
LayerCount: 2
Back
Fore
SplineSet
402 964 m 2xdf80
 402 1174 556 1361 768 1361 c 0xdf80
 792 1361 817 1358 841 1352 c 1
 812 1244 l 1xef80
 785 1250 757 1253 729 1253 c 0
 600 1253 534 1109 534 964 c 2
 534 -407 l 2
 534 -631 353 -811 131 -811 c 0
 129 -811 126 -811 124 -811 c 1
 108 -700 l 1
 193 -700 l 2
 326 -700 402 -555 402 -407 c 2
 402 964 l 2xdf80
1818 964 m 2
 1818 1174 1972 1361 2184 1361 c 0xdf80
 2208 1361 2233 1358 2257 1352 c 1
 2228 1244 l 1xef80
 2201 1250 2173 1253 2145 1253 c 0
 2016 1253 1950 1109 1950 964 c 2
 1950 -407 l 2
 1950 -631 1769 -811 1547 -811 c 0
 1545 -811 1542 -811 1540 -811 c 1
 1524 -700 l 1
 1609 -700 l 2
 1742 -700 1818 -555 1818 -407 c 2
 1818 964 l 2
916 279 m 0
 916 260 895 239 878 222 c 0
 862 205 841 185 822 185 c 0
 803 185 782 205 766 222 c 0
 749 239 728 260 728 279 c 0
 728 297 749 318 766 335 c 0
 782 352 803 373 822 373 c 0
 841 373 862 352 878 335 c 0
 895 318 916 297 916 279 c 0
1270 279 m 0
 1270 260 1249 239 1232 222 c 0
 1216 205 1195 185 1176 185 c 0
 1157 185 1136 205 1120 222 c 0
 1103 239 1082 260 1082 279 c 0
 1082 297 1103 318 1120 335 c 0
 1136 352 1157 373 1176 373 c 0
 1195 373 1216 352 1232 335 c 0
 1249 318 1270 297 1270 279 c 0
1624 279 m 0
 1624 260 1603 239 1586 222 c 0
 1570 205 1549 185 1530 185 c 0
 1511 185 1490 205 1474 222 c 0
 1457 239 1436 260 1436 279 c 0
 1436 297 1457 318 1474 335 c 0
 1490 352 1511 373 1530 373 c 0
 1549 373 1570 352 1586 335 c 0
 1603 318 1624 297 1624 279 c 0
EndSplineSet
EndChar

StartChar: uni2231
Encoding: 78 8753 78
Width: 720
Flags: W
HStem: -328 96<175 261.532> 170 71<457.408 502> 287 88<251.167 303> 785 93<453.763 544.25>
VStem: 303 114<-183.297 287 370.422 746.024> 552 71<311 360.592>
LayerCount: 2
Back
Fore
SplineSet
639 185 m 1
 458 170 l 1
 452 241 l 1
 502 246 l 1
 475 264 447 279 417 287 c 1
 417 -91 l 2
 417 -222 311 -328 180 -328 c 0
 178 -328 177 -328 175 -328 c 1
 161 -232 l 1
 212 -232 l 2
 274 -232 303 -161 303 -91 c 2
 303 287 l 1
 245 271 194 232 150 188 c 1
 90 248 l 1
 150 308 222 358 303 375 c 1
 303 647 l 2
 303 772 397 878 519 878 c 0
 520 878 520 878 521 878 c 0
 538 878 554 876 570 871 c 1
 545 778 l 1
 529 782 513 785 496 785 c 0
 438 785 417 714 417 647 c 2
 417 375 l 1
 467 365 513 341 556 311 c 1
 552 360 l 1
 623 366 l 1
 639 185 l 1
EndSplineSet
EndChar

StartChar: uni2231.disp
Encoding: 79 -1 79
Width: 915
Flags: W
HStem: -811 111<232 368.033> 331 100<435.092 510 642 719.828> 1253 108<760.109 923.073>
VStem: 510 132<-534.304 331 427.584 1095.28>
LayerCount: 2
Back
Fore
SplineSet
510 964 m 2
 510 1174 664 1361 876 1361 c 0
 900 1361 925 1358 949 1352 c 1
 920 1244 l 1
 893 1250 865 1253 837 1253 c 0
 708 1253 642 1109 642 964 c 2
 642 431 l 1
 758 415 863 359 956 284 c 1
 944 427 l 1
 1027 434 l 1
 1053 133 l 1
 751 106 l 1
 744 189 l 1
 899 202 l 1
 822 265 737 315 642 331 c 1
 642 -407 l 2
 642 -631 461 -811 239 -811 c 0
 237 -811 234 -811 232 -811 c 1
 216 -700 l 1
 301 -700 l 2
 434 -700 510 -555 510 -407 c 2
 510 331 l 1
 384 309 273 229 179 135 c 1
 109 206 l 1
 221 318 357 410 510 431 c 1
 510 964 l 2
EndSplineSet
EndChar

StartChar: uni2A11
Encoding: 80 10769 80
Width: 720
Flags: W
HStem: -328 96<175 261.532> 181 88<251.167 303> 315 71<457.408 502> 785 93<453.763 544.25>
VStem: 303 114<-183.297 185.578 269 746.024> 552 71<196.31 245>
LayerCount: 2
Back
Fore
SplineSet
639 371 m 1
 623 190 l 1
 552 197 l 1
 556 245 l 1
 513 215 467 191 417 181 c 1
 417 -91 l 2
 417 -222 311 -328 180 -328 c 0
 178 -328 177 -328 175 -328 c 1
 161 -232 l 1
 212 -232 l 2
 274 -232 303 -161 303 -91 c 2
 303 181 l 1
 222 198 150 248 90 308 c 1
 150 368 l 1
 194 325 245 285 303 269 c 1
 303 647 l 2
 303 772 397 878 519 878 c 0
 520 878 520 878 521 878 c 0
 538 878 554 876 570 871 c 1
 545 778 l 1
 529 782 513 785 496 785 c 0
 438 785 417 714 417 647 c 2
 417 269 l 1
 447 277 476 292 502 310 c 1
 452 315 l 1
 458 386 l 1
 639 371 l 1
EndSplineSet
EndChar

StartChar: uni2A11.disp
Encoding: 81 -1 81
Width: 915
Flags: W
HStem: -811 111<232 368.033> 126 100<435.092 510 642 719.828> 1253 108<760.109 923.073>
VStem: 510 132<-534.304 129.416 226 1095.28>
LayerCount: 2
Back
Fore
SplineSet
510 964 m 2
 510 1174 664 1361 876 1361 c 0
 900 1361 925 1358 949 1352 c 1
 920 1244 l 1
 893 1250 865 1253 837 1253 c 0
 708 1253 642 1109 642 964 c 2
 642 226 l 1
 737 242 822 292 899 355 c 1
 744 368 l 1
 751 451 l 1
 1053 424 l 1
 1027 123 l 1
 944 130 l 1
 956 273 l 1
 863 198 758 142 642 126 c 1
 642 -407 l 2
 642 -631 461 -811 239 -811 c 0
 237 -811 234 -811 232 -811 c 1
 216 -700 l 1
 301 -700 l 2
 434 -700 510 -555 510 -407 c 2
 510 126 l 1
 357 147 221 239 109 351 c 1
 179 422 l 1
 273 328 384 248 510 226 c 1
 510 964 l 2
EndSplineSet
EndChar

StartChar: uni2A0D
Encoding: 82 10765 82
Width: 600
Flags: W
HStem: -328 96<115 201.532> 235 86<107 243 357 493> 785 93<393.763 484.25>
VStem: 243 114<-183.297 235 321 746.024>
LayerCount: 2
Back
Fore
SplineSet
107 235 m 1
 107 321 l 1
 243 321 l 1
 243 647 l 2
 243 772 337 878 459 878 c 0
 460 878 460 878 461 878 c 0
 478 878 494 876 510 871 c 1
 485 778 l 1
 469 782 453 785 436 785 c 0
 378 785 357 714 357 647 c 2
 357 321 l 1
 493 321 l 1
 493 235 l 1
 357 235 l 1
 357 -91 l 2
 357 -222 251 -328 120 -328 c 0
 118 -328 117 -328 115 -328 c 1
 101 -232 l 1
 152 -232 l 2
 214 -232 243 -161 243 -91 c 2
 243 235 l 1
 107 235 l 1
EndSplineSet
EndChar

StartChar: uni2A0D.disp
Encoding: 83 -1 83
Width: 699
Flags: W
HStem: -811 111<124 260.033> 229 99<148 402 534 788> 1253 108<652.109 815.073>
VStem: 402 132<-534.304 229 328 1095.28>
LayerCount: 2
Back
Fore
SplineSet
402 964 m 2
 402 1174 556 1361 768 1361 c 0
 792 1361 817 1358 841 1352 c 1
 812 1244 l 1
 785 1250 757 1253 729 1253 c 0
 600 1253 534 1109 534 964 c 2
 534 328 l 1
 788 328 l 1
 788 229 l 1
 534 229 l 1
 534 -407 l 2
 534 -631 353 -811 131 -811 c 0
 129 -811 126 -811 124 -811 c 1
 108 -700 l 1
 193 -700 l 2
 326 -700 402 -555 402 -407 c 2
 402 229 l 1
 148 229 l 1
 148 328 l 1
 402 328 l 1
 402 964 l 2
EndSplineSet
EndChar

StartChar: uni2A0E
Encoding: 84 10766 84
Width: 600
Flags: W
HStem: -328 96<115 201.532> 139 86<107 243 357 493> 331 86<107 243 357 493> 785 93<393.763 484.25>
VStem: 243 114<-183.297 139 225 331 417 746.024>
LayerCount: 2
Back
Fore
SplineSet
107 331 m 1
 107 417 l 1
 243 417 l 1
 243 647 l 2
 243 772 337 878 459 878 c 0
 460 878 460 878 461 878 c 0
 478 878 494 876 510 871 c 1
 485 778 l 1
 469 782 453 785 436 785 c 0
 378 785 357 714 357 647 c 2
 357 417 l 1
 493 417 l 1
 493 331 l 1
 357 331 l 1
 357 225 l 1
 493 225 l 1
 493 139 l 1
 357 139 l 1
 357 -91 l 2
 357 -222 251 -328 120 -328 c 0
 118 -328 117 -328 115 -328 c 1
 101 -232 l 1
 152 -232 l 2
 214 -232 243 -161 243 -91 c 2
 243 139 l 1
 107 139 l 1
 107 225 l 1
 243 225 l 1
 243 331 l 1
 107 331 l 1
EndSplineSet
EndChar

StartChar: uni2A0E.disp
Encoding: 85 -1 85
Width: 699
Flags: W
HStem: -811 111<124 260.033> 132 100<148 402 534 788> 325 100<148 402 534 788> 1253 108<652.109 815.073>
VStem: 402 132<-534.304 132 232 325 425 1095.28>
LayerCount: 2
Back
Fore
SplineSet
402 964 m 2
 402 1174 556 1361 768 1361 c 0
 792 1361 817 1358 841 1352 c 1
 812 1244 l 1
 785 1250 757 1253 729 1253 c 0
 600 1253 534 1109 534 964 c 2
 534 425 l 1
 788 425 l 1
 788 325 l 1
 534 325 l 1
 534 232 l 1
 788 232 l 1
 788 132 l 1
 534 132 l 1
 534 -407 l 2
 534 -631 353 -811 131 -811 c 0
 129 -811 126 -811 124 -811 c 1
 108 -700 l 1
 193 -700 l 2
 326 -700 402 -555 402 -407 c 2
 402 132 l 1
 148 132 l 1
 148 232 l 1
 402 232 l 1
 402 325 l 1
 148 325 l 1
 148 425 l 1
 402 425 l 1
 402 964 l 2
EndSplineSet
EndChar

StartChar: uni2A0F
Encoding: 86 10767 86
Width: 485
Flags: W
HStem: -328 96<115 201.532> 785 93<393.763 484.25>
VStem: 243 114<-183.297 186 370 746.024>
LayerCount: 2
Back
Fore
SplineSet
117 98 m 1
 68 168 l 1
 243 290 l 1
 243 647 l 2
 243 772 337 878 459 878 c 0
 460 878 460 878 461 878 c 0
 478 878 494 876 510 871 c 1
 485 778 l 1
 469 782 453 785 436 785 c 0
 378 785 357 714 357 647 c 2
 357 370 l 1
 483 458 l 1
 532 388 l 1
 357 266 l 1
 357 -91 l 2
 357 -222 251 -328 120 -328 c 0
 118 -328 117 -328 115 -328 c 1
 101 -232 l 1
 152 -232 l 2
 214 -232 243 -161 243 -91 c 2
 243 186 l 1
 117 98 l 1
EndSplineSet
EndChar

StartChar: uni2A0F.disp
Encoding: 87 -1 87
Width: 699
Flags: W
HStem: -811 111<124 260.033> -8 21G<132.098 174.603> 1253 108<652.109 815.073>
VStem: 402 132<-534.304 171 386 1095.28>
LayerCount: 2
Back
Fore
SplineSet
402 964 m 2
 402 1174 556 1361 768 1361 c 0
 792 1361 817 1358 841 1352 c 1
 812 1244 l 1
 785 1250 757 1253 729 1253 c 0
 600 1253 534 1109 534 964 c 2
 534 386 l 1
 790 565 l 1
 847 483 l 1
 534 264 l 1
 534 -407 l 2
 534 -631 353 -811 131 -811 c 0
 129 -811 126 -811 124 -811 c 1
 108 -700 l 1
 193 -700 l 2
 326 -700 402 -555 402 -407 c 2
 402 171 l 1
 146 -8 l 1
 89 74 l 1
 402 293 l 1
 402 964 l 2
EndSplineSet
EndChar

StartChar: uni222E
Encoding: 88 8750 88
Width: 660
Flags: W
HStem: -328 96<145 231.532> 785 93<423.763 514.25>
VStem: 90 86<197.632 352.368> 273 114<-183.297 48.2045 132 418 501.796 746.024> 484 86<197.632 352.368>
CounterMasks: 1 38
LayerCount: 2
Back
Fore
SplineSet
273 418 m 1
 219 397 176 341 176 275 c 0
 176 209 219 153 273 132 c 1
 273 418 l 1
387 132 m 1
 441 153 484 209 484 275 c 0
 484 341 441 397 387 418 c 1
 387 132 l 1
540 871 m 1
 515 778 l 1
 499 782 483 785 466 785 c 0
 408 785 387 714 387 647 c 2
 387 508 l 1
 430 498 469 476 500 445 c 0
 545 400 570 339 570 275 c 0
 570 211 545 150 500 105 c 0
 469 74 430 52 387 42 c 1
 387 -91 l 2
 387 -222 281 -328 150 -328 c 0
 148 -328 147 -328 145 -328 c 1
 131 -232 l 1
 182 -232 l 2
 244 -232 273 -161 273 -91 c 2
 273 42 l 1
 230 52 191 74 160 105 c 0
 115 150 90 211 90 275 c 0
 90 339 115 400 160 445 c 0
 191 476 230 498 273 508 c 1
 273 647 l 2
 273 772 367 878 489 878 c 0
 490 878 490 878 491 878 c 0
 508 878 524 876 540 871 c 1
EndSplineSet
EndChar

StartChar: uni222E.disp
Encoding: 89 -1 89
Width: 807
Flags: W
HStem: -811 111<178 314.033> -152 102<389.828 456 588 654.172> 600 102<389.828 456 588 654.172> 1253 108<706.109 869.073>
VStem: 90 100<159.255 390.745> 456 132<-534.304 -148.191 -50 600 698.191 1095.28> 854 100<159.255 390.745>
CounterMasks: 1 0e
LayerCount: 2
Back
Fore
SplineSet
456 -50 m 1
 456 600 l 1
 392 587 333 556 287 510 c 0
 225 448 190 363 190 275 c 0
 190 187 225 102 287 40 c 0
 333 -6 392 -37 456 -50 c 1
854 275 m 0
 854 363 819 448 757 510 c 0
 711 556 652 587 588 600 c 1
 588 -50 l 1
 652 -37 711 -6 757 40 c 0
 819 102 854 187 854 275 c 0
456 964 m 2
 456 1174 610 1361 822 1361 c 0
 846 1361 871 1358 895 1352 c 1
 866 1244 l 1
 839 1250 811 1253 783 1253 c 0
 654 1253 588 1109 588 964 c 2
 588 702 l 1
 678 688 762 645 827 580 c 0
 908 499 954 390 954 275 c 0
 954 160 908 51 827 -30 c 0
 762 -95 678 -138 588 -152 c 1
 588 -407 l 2
 588 -631 407 -811 185 -811 c 0
 183 -811 180 -811 178 -811 c 1
 162 -700 l 1
 247 -700 l 2
 380 -700 456 -555 456 -407 c 2
 456 -152 l 1
 366 -138 282 -95 217 -30 c 0
 136 51 90 160 90 275 c 0
 90 390 136 499 217 580 c 0
 282 645 366 688 456 702 c 1
 456 964 l 2
EndSplineSet
EndChar

StartChar: uni222F
Encoding: 90 8751 90
Width: 960
Flags: W
HStem: -328 96<145 231.532 445 531.532> 35 86<387 573> 429 86<387 573> 778 93<491.796 516.882 791.796 816.882> 785 93<423.763 514.25 723.763 814.25>
VStem: 90 86<208.499 341.501> 273 114<-183.297 38 150 400 512 746.024> 573 114<-183.297 38 150 400 512 746.024> 784 86<208.499 341.501>
LayerCount: 2
Back
Fore
SplineSet
273 400 m 1xe780
 219 378 176 335 176 275 c 0
 176 215 219 172 273 150 c 1
 273 400 l 1xe780
573 124 m 1
 573 426 l 1
 542 429 511 429 480 429 c 0
 449 429 418 429 387 426 c 1
 387 124 l 1
 418 121 449 121 480 121 c 0
 511 121 542 121 573 124 c 1
687 150 m 1
 741 172 784 215 784 275 c 0
 784 335 741 378 687 400 c 1
 687 150 l 1
840 871 m 1xf780
 815 778 l 1xf780
 799 782 783 785 766 785 c 0
 708 785 687 714 687 647 c 2
 687 492 l 1
 717 483 746 472 773 455 c 0
 835 417 870 348 870 275 c 0
 870 202 835 133 773 95 c 0
 746 78 717 67 687 58 c 1
 687 -91 l 2
 687 -222 581 -328 450 -328 c 0
 448 -328 447 -328 445 -328 c 1
 431 -232 l 1
 482 -232 l 2
 544 -232 573 -161 573 -91 c 2
 573 38 l 1
 542 36 511 35 480 35 c 0
 449 35 418 36 387 38 c 1
 387 -91 l 2
 387 -222 281 -328 150 -328 c 0
 148 -328 147 -328 145 -328 c 1
 131 -232 l 1
 182 -232 l 2
 244 -232 273 -161 273 -91 c 2
 273 58 l 1
 243 67 215 78 188 95 c 0
 126 133 90 202 90 275 c 0
 90 348 126 417 188 455 c 0
 215 472 243 483 273 492 c 1
 273 647 l 2
 273 772 367 878 489 878 c 0
 490 878 490 878 491 878 c 0xef80
 508 878 524 876 540 871 c 1
 515 778 l 1xf780
 499 782 483 785 466 785 c 0
 408 785 387 714 387 647 c 2
 387 512 l 1
 418 514 449 515 480 515 c 0
 511 515 542 514 573 512 c 1
 573 647 l 2
 573 772 667 878 789 878 c 0
 790 878 790 878 791 878 c 0xef80
 808 878 824 876 840 871 c 1xf780
EndSplineSet
EndChar

StartChar: uni222F.disp
Encoding: 91 -1 91
Width: 1347
Flags: W
HStem: -811 111<178 314.033 718 854.033> -157 100<591.142 992.858> 607 100<591.142 992.858> 1244 108<823.126 867.88 1363.13 1407.88> 1253 108<706.109 869.073 1246.11 1409.07>
VStem: 90 100<167.615 382.385> 456 132<-534.304 -148 -22 572 698 1095.28> 996 132<-534.304 -148 -22 572 698 1095.28> 1394 100<167.615 382.385>
LayerCount: 2
Back
Fore
SplineSet
456 -22 m 1xe780
 456 572 l 1
 416 560 377 545 340 524 c 0
 249 474 190 379 190 275 c 0
 190 171 249 76 340 26 c 0
 377 5 416 -10 456 -22 c 1xe780
996 -48 m 1
 996 598 l 1
 929 606 860 607 792 607 c 0
 724 607 655 606 588 598 c 1
 588 -48 l 1
 655 -56 724 -57 792 -57 c 0
 860 -57 929 -56 996 -48 c 1
1394 275 m 0
 1394 379 1335 474 1244 524 c 0
 1207 545 1168 560 1128 572 c 1
 1128 -22 l 1
 1168 -10 1207 5 1244 26 c 0
 1335 76 1394 171 1394 275 c 0
996 964 m 2
 996 1174 1150 1361 1362 1361 c 0xef80
 1386 1361 1411 1358 1435 1352 c 1
 1406 1244 l 1xf780
 1379 1250 1351 1253 1323 1253 c 0
 1194 1253 1128 1109 1128 964 c 2
 1128 676 l 1
 1195 660 1259 636 1319 599 c 0
 1430 530 1494 406 1494 275 c 0
 1494 144 1430 20 1319 -49 c 0
 1259 -86 1195 -110 1128 -126 c 1
 1128 -407 l 2
 1128 -631 947 -811 725 -811 c 0
 723 -811 720 -811 718 -811 c 1
 702 -700 l 1
 787 -700 l 2
 920 -700 996 -555 996 -407 c 2
 996 -148 l 1
 929 -155 860 -157 792 -157 c 0
 724 -157 655 -155 588 -148 c 1
 588 -407 l 2
 588 -631 407 -811 185 -811 c 0
 183 -811 180 -811 178 -811 c 1
 162 -700 l 1
 247 -700 l 2
 380 -700 456 -555 456 -407 c 2
 456 -126 l 1
 389 -110 325 -86 266 -49 c 0
 154 20 90 144 90 275 c 0
 90 406 154 530 266 599 c 0
 325 636 389 660 456 676 c 1
 456 964 l 2
 456 1174 610 1361 822 1361 c 0xef80
 846 1361 871 1358 895 1352 c 1
 866 1244 l 1xf780
 839 1250 811 1253 783 1253 c 0xef80
 654 1253 588 1109 588 964 c 2
 588 698 l 1
 655 705 724 707 792 707 c 0
 860 707 929 705 996 698 c 1
 996 964 l 2
EndSplineSet
EndChar

StartChar: uni2230
Encoding: 92 8752 92
Width: 1260
Flags: W
HStem: -328 96<145 231.532 445 531.532 745 831.532> 49 86<387 570.048 689.907 873> 415 86<387 570.048 689.907 873> 778 93<491.796 516.882 791.796 816.882 1091.8 1116.88> 785 93<423.763 514.25 723.763 814.25 1023.76 1114.25>
VStem: 90 86<217.308 332.692> 273 114<-183.297 49 165 385 501 746.024> 573 114<-183.297 35 121 429 515 746.024> 873 114<-183.297 49 165 385 501 746.024> 1084 86<217.096 332.904>
LayerCount: 2
Back
Fore
SplineSet
273 165 m 1xe7c0
 273 385 l 1
 222 364 176 327 176 275 c 0
 176 223 222 186 273 165 c 1xe7c0
387 135 m 1
 448 125 510 122 573 121 c 1
 573 429 l 1
 510 428 448 425 387 415 c 1
 387 135 l 1
687 121 m 1
 749 122 812 125 873 135 c 1
 873 415 l 1
 812 425 749 428 687 429 c 1
 687 121 l 1
987 165 m 1
 1038 186 1084 222 1084 275 c 0
 1084 328 1038 364 987 385 c 1
 987 165 l 1
1140 871 m 1xf7c0
 1115 778 l 1xf7c0
 1099 782 1083 785 1066 785 c 0
 1008 785 987 714 987 647 c 2
 987 474 l 1
 1003 469 1019 462 1035 455 c 0
 1110 422 1170 356 1170 275 c 0
 1170 194 1110 128 1035 95 c 0
 1019 88 1003 81 987 76 c 1
 987 -91 l 2
 987 -222 881 -328 750 -328 c 0
 748 -328 747 -328 745 -328 c 1
 731 -232 l 1
 782 -232 l 2
 844 -232 873 -161 873 -91 c 2
 873 49 l 1
 812 39 749 36 687 35 c 1
 687 -91 l 2
 687 -222 581 -328 450 -328 c 0
 448 -328 447 -328 445 -328 c 1
 431 -232 l 1
 482 -232 l 2
 544 -232 573 -161 573 -91 c 2
 573 35 l 1
 511 36 448 39 387 49 c 1
 387 -91 l 2
 387 -222 281 -328 150 -328 c 0
 148 -328 147 -328 145 -328 c 1
 131 -232 l 1
 182 -232 l 2
 244 -232 273 -161 273 -91 c 2
 273 76 l 1
 257 81 241 88 225 95 c 0
 150 128 90 194 90 275 c 0
 90 356 150 422 225 455 c 0
 241 462 257 469 273 474 c 1
 273 647 l 2
 273 772 367 878 489 878 c 0
 490 878 490 878 491 878 c 0xefc0
 508 878 524 876 540 871 c 1
 515 778 l 1xf7c0
 499 782 483 785 466 785 c 0
 408 785 387 714 387 647 c 2
 387 501 l 1
 448 511 511 514 573 515 c 1
 573 647 l 2
 573 772 667 878 789 878 c 0
 790 878 790 878 791 878 c 0xefc0
 808 878 824 876 840 871 c 1
 815 778 l 1xf7c0
 799 782 783 785 766 785 c 0
 708 785 687 714 687 647 c 2
 687 515 l 1
 749 514 812 511 873 501 c 1
 873 647 l 2
 873 772 967 878 1089 878 c 0
 1090 878 1090 878 1091 878 c 0xefc0
 1108 878 1124 876 1140 871 c 1xf7c0
EndSplineSet
EndChar

StartChar: uni2230.disp
Encoding: 93 -1 93
Width: 1887
Flags: W
HStem: -811 111<178 314.033 718 854.033 1258 1394.03> -126 101<588 745.791 1378.21 1536> 575 101<588 745.791 1378.21 1536> 1244 108<823.126 867.88 1363.13 1407.88 1903.13 1947.88> 1253 108<706.109 869.073 1246.11 1409.07 1786.11 1949.07>
VStem: 90 100<185.423 364.577> 456 132<-534.304 -126 9 541 676 1095.28> 996 132<-534.304 -157 -57 607 707 1095.28> 1536 132<-534.304 -126 9 541 676 1095.28> 1934 100<185.423 364.577>
LayerCount: 2
Back
Fore
SplineSet
456 9 m 1xe7c0
 456 541 l 1
 440 536 424 530 408 524 c 0
 292 480 190 394 190 275 c 0
 190 156 292 70 408 26 c 0
 424 20 440 14 456 9 c 1xe7c0
588 -25 m 1
 721 -51 859 -56 996 -57 c 1
 996 607 l 1
 859 606 721 601 588 575 c 1
 588 -25 l 1
1128 -57 m 1
 1265 -56 1403 -51 1536 -25 c 1
 1536 575 l 1
 1403 601 1265 606 1128 607 c 1
 1128 -57 l 1
1934 275 m 0
 1934 394 1832 480 1716 524 c 0
 1700 530 1684 536 1668 541 c 1
 1668 9 l 1
 1684 14 1700 20 1716 26 c 0
 1832 70 1934 156 1934 275 c 0
1536 964 m 2
 1536 1174 1690 1361 1902 1361 c 0xefc0
 1926 1361 1951 1358 1975 1352 c 1
 1946 1244 l 1xf7c0
 1919 1250 1891 1253 1863 1253 c 0
 1734 1253 1668 1109 1668 964 c 2
 1668 644 l 1
 1710 632 1751 617 1791 599 c 0
 1927 539 2034 421 2034 275 c 0
 2034 129 1927 11 1791 -49 c 0
 1751 -67 1710 -82 1668 -94 c 1
 1668 -407 l 2
 1668 -631 1487 -811 1265 -811 c 0
 1263 -811 1260 -811 1258 -811 c 1
 1242 -700 l 1
 1327 -700 l 2
 1460 -700 1536 -555 1536 -407 c 2
 1536 -126 l 1
 1403 -150 1265 -156 1128 -157 c 1
 1128 -407 l 2
 1128 -631 947 -811 725 -811 c 0
 723 -811 720 -811 718 -811 c 1
 702 -700 l 1
 787 -700 l 2
 920 -700 996 -555 996 -407 c 2
 996 -157 l 1
 859 -156 721 -150 588 -126 c 1
 588 -407 l 2
 588 -631 407 -811 185 -811 c 0
 183 -811 180 -811 178 -811 c 1
 162 -700 l 1
 247 -700 l 2
 380 -700 456 -555 456 -407 c 2
 456 -94 l 1
 414 -82 373 -67 333 -49 c 0
 198 11 90 129 90 275 c 0
 90 421 198 539 333 599 c 0
 373 617 414 632 456 644 c 1
 456 964 l 2
 456 1174 610 1361 822 1361 c 0xefc0
 846 1361 871 1358 895 1352 c 1
 866 1244 l 1xf7c0
 839 1250 811 1253 783 1253 c 0
 654 1253 588 1109 588 964 c 2
 588 676 l 1
 721 700 859 706 996 707 c 1
 996 964 l 2
 996 1174 1150 1361 1362 1361 c 0xefc0
 1386 1361 1411 1358 1435 1352 c 1
 1406 1244 l 1xf7c0
 1379 1250 1351 1253 1323 1253 c 0xefc0
 1194 1253 1128 1109 1128 964 c 2
 1128 707 l 1
 1265 706 1403 700 1536 676 c 1
 1536 964 l 2
EndSplineSet
EndChar

StartChar: uni2233
Encoding: 94 8755 94
Width: 720
Flags: W
HStem: -328 96<145 231.532> 785 93<423.763 514.25>
VStem: 90 86<198.712 356.91> 273 114<-183.297 50.8164 135 229 238 421 505.628 746.024>
LayerCount: 2
Back
Fore
SplineSet
273 421 m 1
 232 405 200 371 185 331 c 0
 179 314 176 296 176 278 c 0
 176 206 221 156 273 135 c 1
 273 421 l 1
463 199 m 1
 419 174 l 1
 387 229 l 1
 387 135 l 1
 419 148 446 171 463 199 c 1
546 173 m 1
 515 110 461 63 387 45 c 1
 387 -91 l 2
 387 -222 281 -328 150 -328 c 0
 148 -328 147 -328 145 -328 c 1
 131 -232 l 1
 182 -232 l 2
 244 -232 273 -161 273 -91 c 2
 273 45 l 1
 199 63 143 111 112 177 c 0
 97 209 90 243 90 278 c 0
 90 306 95 334 104 360 c 0
 131 433 191 491 273 511 c 1
 273 647 l 2
 273 772 367 878 489 878 c 0
 490 878 490 878 491 878 c 0
 508 878 524 876 540 871 c 1
 515 778 l 1
 499 782 483 785 466 785 c 0
 408 785 387 714 387 647 c 2
 387 511 l 1
 461 494 518 444 548 379 c 1
 470 343 l 1
 453 379 423 406 387 421 c 1
 387 238 l 1
 540 327 l 1
 568 278 l 1
 570 278 l 2
 570 277 570 276 570 275 c 2
 631 170 l 1
 569 134 l 1
 546 173 l 1
EndSplineSet
EndChar

StartChar: uni2233.disp
Encoding: 95 -1 95
Width: 915
Flags: W
HStem: -811 111<178 314.033> -148 101<387.947 456 588 656.795> 604 101<387.205 456 588 656.053> 1253 108<706.109 869.073>
VStem: 90 100<159.366 396.712> 456 132<-534.304 -144.438 -47 604 701.438 1095.28>
LayerCount: 2
Back
Fore
SplineSet
456 604 m 1
 335 580 248 497 210 392 c 0
 197 355 190 316 190 277 c 0
 190 229 200 182 221 138 c 0
 264 45 346 -25 456 -47 c 1
 456 604 l 1
456 964 m 2
 456 1174 610 1361 822 1361 c 0
 846 1361 871 1358 895 1352 c 1
 866 1244 l 1
 839 1250 811 1253 783 1253 c 0
 654 1253 588 1109 588 964 c 2
 588 705 l 1
 616 701 643 694 670 684 c 0
 777 645 865 565 914 461 c 1
 823 419 l 1
 780 512 698 582 588 604 c 1
 588 -47 l 1
 718 -21 813 74 844 196 c 1
 699 112 l 1
 657 184 l 1
 919 335 l 1
 951 279 l 1
 954 279 l 1
 954 278 954 276 954 275 c 2
 1071 73 l 1
 999 31 l 1
 933 146 l 1
 896 30 812 -63 705 -113 c 0
 668 -130 628 -142 588 -148 c 1
 588 -407 l 2
 588 -631 407 -811 185 -811 c 0
 183 -811 180 -811 178 -811 c 1
 162 -700 l 1
 247 -700 l 2
 380 -700 456 -555 456 -407 c 2
 456 -148 l 1
 428 -144 401 -137 374 -127 c 0
 267 -88 179 -8 130 96 c 0
 103 154 90 216 90 278 c 0
 90 328 99 378 116 426 c 0
 155 534 236 622 339 670 c 0
 376 687 416 699 456 705 c 1
 456 964 l 2
EndSplineSet
EndChar

StartChar: uni2232.alt
Encoding: 96 -1 96
Width: 720
Flags: W
HStem: -328 96<145 231.532> 785 93<423.763 514.25>
VStem: 90 86<198.712 356.91> 273 114<-183.297 50.3555 135 318 327 421 505.628 746.024>
LayerCount: 2
Back
Fore
SplineSet
273 421 m 1
 232 405 200 371 185 331 c 0
 179 314 176 296 176 278 c 0
 176 206 221 156 273 135 c 1
 273 421 l 1
462 357 m 1
 444 386 418 408 387 421 c 1
 387 327 l 1
 419 382 l 1
 462 357 l 1
556 196 m 1
 529 122 469 65 387 45 c 1
 387 -91 l 2
 387 -222 281 -328 150 -328 c 0
 148 -328 147 -328 145 -328 c 1
 131 -232 l 1
 182 -232 l 2
 244 -232 273 -161 273 -91 c 2
 273 45 l 1
 199 63 143 111 112 177 c 0
 97 209 90 243 90 278 c 0
 90 306 95 334 104 360 c 0
 131 433 191 491 273 511 c 1
 273 647 l 2
 273 772 367 878 489 878 c 0
 490 878 490 878 491 878 c 0
 508 878 524 876 540 871 c 1
 515 778 l 1
 499 782 483 785 466 785 c 0
 408 785 387 714 387 647 c 2
 387 511 l 1
 460 494 515 446 546 383 c 1
 569 422 l 1
 631 386 l 1
 570 281 l 2
 570 280 570 279 570 278 c 2
 568 278 l 1
 540 229 l 1
 387 318 l 1
 387 135 l 1
 428 151 460 185 475 225 c 1
 556 196 l 1
EndSplineSet
EndChar

StartChar: uni2232.alt.disp
Encoding: 97 -1 97
Width: 915
Flags: W
HStem: -811 111<178 314.033> -148 101<387.947 456 588 656.795> 604 101<387.205 456 588 654.343> 1253 108<706.109 869.073>
VStem: 90 100<159.366 396.712> 456 132<-534.304 -144.438 -47 604 701.438 1095.28>
LayerCount: 2
Back
Fore
SplineSet
456 604 m 1
 335 580 248 497 210 392 c 0
 197 355 190 316 190 277 c 0
 190 229 200 182 221 138 c 0
 264 45 346 -25 456 -47 c 1
 456 604 l 1
456 964 m 2
 456 1174 610 1361 822 1361 c 0
 846 1361 871 1358 895 1352 c 1
 866 1244 l 1
 839 1250 811 1253 783 1253 c 0
 654 1253 588 1109 588 964 c 2
 588 705 l 1
 616 701 643 694 670 684 c 0
 792 639 891 543 933 412 c 1
 999 526 l 1
 1071 484 l 1
 954 282 l 2
 954 281 954 280 954 279 c 1
 952 279 l 1
 919 222 l 1
 657 373 l 1
 699 445 l 1
 844 361 l 1
 816 472 735 555 636 591 c 0
 620 597 604 601 588 604 c 1
 588 -47 l 1
 708 -23 796 61 834 165 c 1
 928 131 l 1
 889 23 808 -65 705 -113 c 0
 668 -130 628 -142 588 -148 c 1
 588 -407 l 2
 588 -631 407 -811 185 -811 c 0
 183 -811 180 -811 178 -811 c 1
 162 -700 l 1
 247 -700 l 2
 380 -700 456 -555 456 -407 c 2
 456 -148 l 1
 428 -144 401 -137 374 -127 c 0
 267 -88 179 -8 130 96 c 0
 103 154 90 216 90 278 c 0
 90 328 99 378 116 426 c 0
 155 534 236 622 339 670 c 0
 376 687 416 699 456 705 c 1
 456 964 l 2
EndSplineSet
EndChar

StartChar: uni2233.alt
Encoding: 98 -1 98
Width: 720
Flags: W
HStem: -328 96<205 291.532> 785 93<483.763 574.25>
VStem: 333 114<-183.297 50.3555 135 318 327 421 505.363 746.024> 544 86<199.09 357.288>
LayerCount: 2
Back
Fore
SplineSet
447 135 m 1
 488 151 520 185 535 225 c 0
 541 242 544 260 544 278 c 0
 544 350 499 400 447 421 c 1
 447 135 l 1
257 357 m 1
 301 382 l 1
 333 327 l 1
 333 421 l 1
 301 408 274 385 257 357 c 1
174 383 m 1
 204 445 259 493 333 511 c 1
 333 647 l 2
 333 772 427 878 549 878 c 0
 550 878 550 878 551 878 c 0
 568 878 584 876 600 871 c 1
 575 778 l 1
 559 782 543 785 526 785 c 0
 468 785 447 714 447 647 c 2
 447 511 l 1
 521 494 578 444 608 379 c 0
 623 347 630 313 630 278 c 0
 630 250 625 222 616 196 c 0
 589 122 529 65 447 45 c 1
 447 -91 l 2
 447 -222 341 -328 210 -328 c 0
 208 -328 207 -328 205 -328 c 1
 191 -232 l 1
 242 -232 l 2
 304 -232 333 -161 333 -91 c 2
 333 45 l 1
 259 63 203 111 172 177 c 1
 250 213 l 1
 267 177 297 150 333 135 c 1
 333 318 l 1
 180 229 l 1
 152 278 l 1
 150 278 l 2
 150 279 150 280 150 281 c 2
 89 386 l 1
 151 422 l 1
 174 383 l 1
EndSplineSet
EndChar

StartChar: uni2233.alt.disp
Encoding: 99 -1 99
Width: 915
Flags: W
HStem: -811 111<286 422.033> -148 101<495.947 564 696 764.795> 604 102<495.205 564 696 764.053> 1253 108<814.109 977.073>
VStem: 564 132<-534.304 -144.438 -47 604 702.375 1095.28> 963 99<163.889 394.064>
LayerCount: 2
Back
Fore
SplineSet
696 -47 m 1
 816 -23 904 61 942 165 c 0
 956 202 963 241 963 279 c 0
 963 327 952 375 931 419 c 0
 888 512 806 582 696 604 c 1
 696 -47 l 1
564 964 m 2
 564 1174 718 1361 930 1361 c 0
 954 1361 979 1358 1003 1352 c 1
 974 1244 l 1
 947 1250 919 1253 891 1253 c 0
 762 1253 696 1109 696 964 c 2
 696 705 l 1
 724 701 751 694 778 684 c 0
 885 645 973 565 1022 461 c 0
 1049 403 1062 341 1062 279 c 0
 1062 229 1053 179 1036 131 c 0
 997 23 916 -65 813 -113 c 0
 776 -130 736 -142 696 -148 c 1
 696 -407 l 2
 696 -631 515 -811 293 -811 c 0
 291 -811 288 -811 286 -811 c 1
 270 -700 l 1
 355 -700 l 2
 488 -700 564 -555 564 -407 c 2
 564 -148 l 1
 536 -144 509 -137 482 -127 c 0
 375 -88 287 -8 238 96 c 1
 329 138 l 1
 372 45 454 -25 564 -47 c 1
 564 604 l 1
 434 578 340 483 308 361 c 1
 453 445 l 1
 495 373 l 1
 233 222 l 1
 200 279 l 1
 198 279 l 1
 198 280 198 281 198 282 c 2
 81 484 l 1
 153 526 l 1
 219 411 l 1
 256 527 340 620 447 670 c 0
 484 688 524 700 564 706 c 1
 564 964 l 2
EndSplineSet
EndChar

StartChar: uni2232
Encoding: 100 8754 100
Width: 720
Flags: W
HStem: -328 96<205 291.532> 785 93<483.763 574.25>
VStem: 333 114<-183.297 50.3555 135 229 238 421 505.628 746.024> 544 86<199.09 357.288>
LayerCount: 2
Back
Fore
SplineSet
447 135 m 1
 488 151 520 185 535 225 c 0
 541 242 544 260 544 278 c 0
 544 350 499 400 447 421 c 1
 447 135 l 1
258 199 m 1
 276 170 302 148 333 135 c 1
 333 229 l 1
 301 174 l 1
 258 199 l 1
164 360 m 1
 191 433 251 491 333 511 c 1
 333 647 l 2
 333 772 427 878 549 878 c 0
 550 878 550 878 551 878 c 0
 568 878 584 876 600 871 c 1
 575 778 l 1
 559 782 543 785 526 785 c 0
 468 785 447 714 447 647 c 2
 447 511 l 1
 521 494 578 444 608 379 c 0
 623 347 630 313 630 278 c 0
 630 250 625 222 616 196 c 0
 589 122 529 65 447 45 c 1
 447 -91 l 2
 447 -222 341 -328 210 -328 c 0
 208 -328 207 -328 205 -328 c 1
 191 -232 l 1
 242 -232 l 2
 304 -232 333 -161 333 -91 c 2
 333 45 l 1
 260 63 205 109 174 173 c 1
 151 134 l 1
 89 170 l 1
 150 275 l 2
 150 276 150 277 150 278 c 2
 152 278 l 1
 180 327 l 1
 333 238 l 1
 333 421 l 1
 292 405 260 371 245 331 c 1
 164 360 l 1
EndSplineSet
EndChar

StartChar: uni2232.disp
Encoding: 101 -1 101
Width: 915
Flags: W
HStem: -811 111<286 422.033> -148 101<497.657 564 696 764.795> 604 101<495.205 564 696 764.053> 1253 108<814.109 977.073>
VStem: 564 132<-534.304 -144.438 -47 604 701.438 1095.28> 963 99<163.889 394.064>
LayerCount: 2
Back
Fore
SplineSet
696 -47 m 1
 816 -23 904 61 942 165 c 0
 956 202 963 241 963 279 c 0
 963 327 952 375 931 419 c 0
 888 512 806 582 696 604 c 1
 696 -47 l 1
564 964 m 2
 564 1174 718 1361 930 1361 c 0
 954 1361 979 1358 1003 1352 c 1
 974 1244 l 1
 947 1250 919 1253 891 1253 c 0
 762 1253 696 1109 696 964 c 2
 696 705 l 1
 724 701 751 694 778 684 c 0
 885 645 973 565 1022 461 c 0
 1049 403 1062 341 1062 279 c 0
 1062 229 1053 179 1036 131 c 0
 997 23 916 -65 813 -113 c 0
 776 -130 736 -142 696 -148 c 1
 696 -407 l 2
 696 -631 515 -811 293 -811 c 0
 291 -811 288 -811 286 -811 c 1
 270 -700 l 1
 355 -700 l 2
 488 -700 564 -555 564 -407 c 2
 564 -148 l 1
 536 -144 509 -137 482 -127 c 0
 360 -82 261 14 219 145 c 1
 153 31 l 1
 81 73 l 1
 198 275 l 2
 198 276 198 278 198 279 c 1
 201 279 l 1
 233 335 l 1
 495 184 l 1
 453 112 l 1
 308 196 l 1
 336 85 417 2 516 -34 c 0
 532 -40 548 -44 564 -47 c 1
 564 604 l 1
 443 580 356 497 318 392 c 1
 224 426 l 1
 263 534 344 622 447 670 c 0
 484 687 524 699 564 705 c 1
 564 964 l 2
EndSplineSet
EndChar

StartChar: uni2A0B
Encoding: 102 10763 102
Width: 630
Flags: W
HStem: -328 96<145 231.532> -5 92<387 464.891> -5 79<205 273> 495 66<228 273 387 442.036> 785 93<423.763 514.25>
VStem: 273 114<-183.297 -5 87 161 429 492 561 746.024> 476 35<413 448.715> 494 35<117.541 140.6>
LayerCount: 2
Back
Fore
SplineSet
273 161 m 1xbc
 205 67 l 1
 273 74 l 1
 273 161 l 1xbc
273 494 m 1
 228 495 l 1
 273 429 l 1
 273 494 l 1
387 87 m 1xde
 434 92 484 104 494 147 c 1
 529 139 l 1
 489 -5 l 1xbd
 387 -5 l 1xdd
 387 -91 l 2
 387 -222 281 -328 150 -328 c 0
 148 -328 147 -328 145 -328 c 1
 131 -232 l 1
 182 -232 l 2
 244 -232 273 -161 273 -91 c 2
 273 -5 l 1
 108 -5 l 1xbd
 91 67 l 1
 236 267 l 1
 91 481 l 1
 110 561 l 1
 273 561 l 1
 273 647 l 2
 273 772 367 878 489 878 c 0
 490 878 490 878 491 878 c 0
 508 878 524 876 540 871 c 1
 515 778 l 1
 499 782 483 785 466 785 c 0
 408 785 387 714 387 647 c 2
 387 561 l 1
 511 561 l 1
 511 413 l 1
 476 413 l 1
 460 449 442 491 406 492 c 2
 387 492 l 1
 387 87 l 1xde
EndSplineSet
EndChar

StartChar: uni2A0B.disp
Encoding: 103 -1 103
Width: 882
Flags: W
HStem: -811 111<178 314.033> -230 102<588 789.829> -230 95<328.833 456> 709 78<264 456 588 758.723> 1253 108<706.109 869.073>
VStem: 456 132<-534.304 -230 -128 148 440 708 787 1095.28> 825 42<616 650.39> 847 40<-86.6442 -62.425>
LayerCount: 2
Back
Fore
SplineSet
456 148 m 1xbc
 238 -147 l 1
 456 -135 l 1
 456 148 l 1xbc
456 709 m 1
 264 711 l 1
 456 440 l 1
 456 709 l 1
456 964 m 2
 456 1174 610 1361 822 1361 c 0
 846 1361 871 1358 895 1352 c 1
 866 1244 l 1
 839 1250 811 1253 783 1253 c 0
 654 1253 588 1109 588 964 c 2
 588 787 l 1
 867 787 l 1
 867 616 l 1
 825 616 l 1
 801 674 741 707 678 707 c 2
 588 708 l 1
 588 -128 l 1xde
 658 -124 l 2
 737 -120 833 -114 847 -55 c 1
 887 -64 l 1
 840 -230 l 1xbd
 588 -230 l 1xdd
 588 -407 l 2
 588 -631 407 -811 185 -811 c 0
 183 -811 180 -811 178 -811 c 1
 162 -700 l 1
 247 -700 l 2
 380 -700 456 -555 456 -407 c 2
 456 -230 l 1
 130 -230 l 1
 111 -147 l 1
 416 266 l 1
 111 695 l 1
 132 787 l 1
 456 787 l 1
 456 964 l 2
EndSplineSet
EndChar

StartChar: uni2A0B.sf
Encoding: 104 -1 104
Width: 630
Flags: W
HStem: -328 96<145 231.532> -5 99<224 273 387 511> 462 99<224 273 387 511> 785 93<423.763 514.25>
VStem: 273 114<-183.297 -5 94 157 399 462 561 746.024>
LayerCount: 2
Back
Fore
SplineSet
273 157 m 1
 224 94 l 1
 273 94 l 1
 273 157 l 1
273 462 m 1
 224 462 l 1
 273 399 l 1
 273 462 l 1
91 -5 m 1
 91 94 l 1
 235 278 l 1
 91 462 l 1
 91 561 l 1
 273 561 l 1
 273 647 l 2
 273 772 367 878 489 878 c 0
 490 878 490 878 491 878 c 0
 508 878 524 876 540 871 c 1
 515 778 l 1
 499 782 483 785 466 785 c 0
 408 785 387 714 387 647 c 2
 387 561 l 1
 511 561 l 1
 511 462 l 1
 387 462 l 1
 387 94 l 1
 511 94 l 1
 511 -5 l 1
 387 -5 l 1
 387 -91 l 2
 387 -222 281 -328 150 -328 c 0
 148 -328 147 -328 145 -328 c 1
 131 -232 l 1
 182 -232 l 2
 244 -232 273 -161 273 -91 c 2
 273 -5 l 1
 91 -5 l 1
EndSplineSet
EndChar

StartChar: uni2A0B.sf.disp
Encoding: 105 -1 105
Width: 882
Flags: W
HStem: -811 111<178 314.033> -230 114<260 456 588 867> 673 114<260 456 588 867> 1253 108<706.109 869.073>
VStem: 456 132<-534.304 -230 -116 140 418 673 787 1095.28>
LayerCount: 2
Back
Fore
SplineSet
456 140 m 1
 260 -116 l 1
 456 -116 l 1
 456 140 l 1
456 673 m 1
 260 673 l 1
 456 418 l 1
 456 673 l 1
456 964 m 2
 456 1174 610 1361 822 1361 c 0
 846 1361 871 1358 895 1352 c 1
 866 1244 l 1
 839 1250 811 1253 783 1253 c 0
 654 1253 588 1109 588 964 c 2
 588 787 l 1
 867 787 l 1
 867 673 l 1
 588 673 l 1
 588 -116 l 1
 867 -116 l 1
 867 -230 l 1
 588 -230 l 1
 588 -407 l 2
 588 -631 407 -811 185 -811 c 0
 183 -811 180 -811 178 -811 c 1
 162 -700 l 1
 247 -700 l 2
 380 -700 456 -555 456 -407 c 2
 456 -230 l 1
 111 -230 l 1
 111 -116 l 1
 414 279 l 1
 111 673 l 1
 111 787 l 1
 456 787 l 1
 456 964 l 2
EndSplineSet
EndChar

StartChar: uni0302
Encoding: 114 770 106
Width: 420
Flags: W
HStem: 670 187
LayerCount: 2
Back
Fore
SplineSet
-18 748 m 1
 210 857 l 1
 438 748 l 1
 402 670 l 1
 210 754 l 1
 18 670 l 1
 -18 748 l 1
EndSplineSet
EndChar

StartChar: uni0302.big1
Encoding: 115 -1 107
Width: 756
Flags: W
HStem: 667 190
LayerCount: 2
Back
Fore
SplineSet
-11 751 m 1
 378 857 l 1
 767 751 l 1
 745 667 l 1
 378 754 l 1
 11 667 l 1
 -11 751 l 1
EndSplineSet
EndChar

StartChar: uni0302.big2
Encoding: 116 -1 108
Width: 1092
Flags: W
HStem: 667 84<5.83333 29.5189 1062.48 1086.17>
LayerCount: 2
Back
Fore
SplineSet
-7 751 m 1
 546 857 l 1
 1099 751 l 1
 1085 667 l 1
 546 754 l 1
 7 667 l 1
 -7 751 l 1
EndSplineSet
EndChar

StartChar: uni0302.big3
Encoding: 117 -1 109
Width: 1428
Flags: W
HStem: 666 86<5.02326 42>
LayerCount: 2
Back
Fore
SplineSet
-6 752 m 1
 714 857 l 1
 1434 752 l 1
 1422 666 l 1
 714 754 l 1
 6 666 l 1
 -6 752 l 1
EndSplineSet
EndChar

StartChar: uni0302.big4
Encoding: 118 -1 110
Width: 1764
Flags: W
HStem: 666 86<4.18605 54.1333>
LayerCount: 2
Back
Fore
SplineSet
-5 752 m 1
 882 857 l 1
 1769 752 l 1
 1759 666 l 1
 882 754 l 1
 5 666 l 1
 -5 752 l 1
EndSplineSet
EndChar

StartChar: uni0302.big5
Encoding: 119 -1 111
Width: 2100
Flags: W
HStem: 666 86<3.34884 66.2667>
LayerCount: 2
Back
Fore
SplineSet
-4 752 m 1
 1050 857 l 1
 2104 752 l 1
 2096 666 l 1
 1050 754 l 1
 4 666 l 1
 -4 752 l 1
EndSplineSet
EndChar

StartChar: uni0303
Encoding: 120 771 112
Width: 420
Flags: W
HStem: 666 86<255.158 341.058> 710 21G<31.0213 63.5> 762 86<78.9425 164.842>
LayerCount: 2
Back
Fore
SplineSet
54 710 m 1x60
 0 757 l 1
 35 797 66 848 119 848 c 0
 166 848 206 820 240 788 c 0
 258 771 276 752 301 752 c 0
 330 752 347 782 366 804 c 1
 420 757 l 1
 385 717 354 666 301 666 c 0xa0
 254 666 214 694 180 726 c 0
 162 743 144 762 119 762 c 0
 90 762 73 732 54 710 c 1x60
EndSplineSet
EndChar

StartChar: uni0303.big1
Encoding: 121 -1 113
Width: 756
Flags: W
HStem: 666 86<445.28 640.783> 762 86<115.217 310.72>
LayerCount: 2
Back
Fore
SplineSet
38 697 m 1
 0 757 l 1
 64 798 127 848 203 848 c 0
 272 848 337 827 398 795 c 0
 446 770 498 752 553 752 c 0
 613 752 667 785 718 818 c 1
 756 757 l 1
 692 716 629 666 553 666 c 0
 484 666 419 688 358 719 c 0
 310 744 258 762 203 762 c 0
 143 762 89 729 38 697 c 1
EndSplineSet
EndChar

StartChar: uni0303.big2
Encoding: 122 -1 114
Width: 1092
Flags: W
HStem: 666 86<641.76 924.989> 762 86<165.163 450.24>
LayerCount: 2
Back
Fore
SplineSet
29 692 m 1
 0 757 l 1
 93 798 185 848 287 848 c 0
 380 848 472 828 560 798 c 0
 639 771 721 752 805 752 c 0
 895 752 981 786 1063 823 c 1
 1092 757 l 1
 999 716 907 666 805 666 c 0
 712 666 620 686 532 716 c 0
 453 743 371 762 287 762 c 0
 197 762 112 728 29 692 c 1
EndSplineSet
EndChar

StartChar: uni0303.big3
Encoding: 123 -1 115
Width: 1428
Flags: W
HStem: 666 86<841.403 1210.77> 762 86<217.232 586.597>
LayerCount: 2
Back
Fore
SplineSet
23 689 m 1
 0 757 l 1
 122 798 243 848 371 848 c 0
 491 848 608 827 724 799 c 0
 833 772 944 752 1057 752 c 0
 1176 752 1292 787 1405 825 c 1
 1428 757 l 1
 1306 716 1185 666 1057 666 c 0
 937 666 820 687 704 715 c 0
 595 742 484 762 371 762 c 0
 252 762 136 727 23 689 c 1
EndSplineSet
EndChar

StartChar: uni0303.big4
Encoding: 124 -1 116
Width: 1764
Flags: W
HStem: 666 86<1067.93 1495.28> 762 86<268.724 696.072>
LayerCount: 2
Back
Fore
SplineSet
1309 666 m 0
 1021 666 743 762 455 762 c 0
 307 762 162 727 19 688 c 1
 0 757 l 1
 150 798 300 848 455 848 c 0
 743 848 1021 752 1309 752 c 0
 1457 752 1602 787 1745 826 c 1
 1764 757 l 1
 1614 716 1464 666 1309 666 c 0
EndSplineSet
EndChar

StartChar: uni0303.big5
Encoding: 125 -1 117
Width: 2100
Flags: W
HStem: 666 86<1320.99 1782.69> 762 86<317.31 779.817>
LayerCount: 2
Back
Fore
SplineSet
1561 666 m 0
 1218 666 884 762 539 762 c 0
 362 762 188 727 16 687 c 1
 0 757 l 1
 178 798 356 848 539 848 c 0
 883 848 1218 752 1561 752 c 0
 1738 752 1912 787 2084 827 c 1
 2100 757 l 1
 1922 716 1744 666 1561 666 c 0
EndSplineSet
EndChar

StartChar: uni0311
Encoding: 126 785 118
Width: 420
Flags: W
HStem: 762 86<135.085 284.915>
LayerCount: 2
Back
Fore
SplineSet
65 681 m 1
 0 737 l 1
 55 800 127 848 210 848 c 0
 293 848 365 800 420 737 c 1
 355 681 l 1
 317 725 268 762 210 762 c 0
 152 762 103 725 65 681 c 1
EndSplineSet
EndChar

StartChar: uni0311.big1
Encoding: 127 -1 119
Width: 756
Flags: W
HStem: 762 86<205.223 550.777>
LayerCount: 2
Back
Fore
SplineSet
46 673 m 1
 0 745 l 1
 112 817 245 848 378 848 c 0
 511 848 644 817 756 745 c 1
 710 673 l 1
 611 736 495 762 378 762 c 0
 261 762 145 736 46 673 c 1
EndSplineSet
EndChar

StartChar: uni0311.big2
Encoding: 128 -1 120
Width: 1092
Flags: W
HStem: 762 86<301.247 790.753>
LayerCount: 2
Back
Fore
SplineSet
35 670 m 1
 0 748 l 1
 171 824 359 848 546 848 c 0
 733 848 921 824 1092 748 c 1
 1057 670 l 1
 897 740 721 762 546 762 c 0
 371 762 195 740 35 670 c 1
EndSplineSet
EndChar

StartChar: uni0311.big3
Encoding: 129 -1 121
Width: 1428
Flags: W
HStem: 762 86<464.244 963.756>
LayerCount: 2
Back
Fore
SplineSet
27 668 m 1
 0 750 l 1
 229 827 472 848 714 848 c 0
 956 848 1199 827 1428 750 c 1
 1401 668 l 1
 1180 743 946 762 714 762 c 0
 482 762 248 743 27 668 c 1
EndSplineSet
EndChar

StartChar: uni0311.big4
Encoding: 130 -1 122
Width: 1764
Flags: W
HStem: 668 82<21.0366 75.4497 1688.55 1742.96> 762 86<634.715 1129.29>
LayerCount: 2
Back
Fore
SplineSet
23 668 m 1
 0 750 l 1
 287 829 585 848 882 848 c 0
 1179 848 1477 829 1764 750 c 1
 1741 668 l 1
 1462 744 1171 762 882 762 c 0
 593 762 302 744 23 668 c 1
EndSplineSet
EndChar

StartChar: uni0311.big5
Encoding: 131 -1 123
Width: 2100
Flags: W
HStem: 667 84<17.4167 96.9799 2003.02 2082.58> 762 86<804.298 1295.7>
LayerCount: 2
Back
Fore
SplineSet
19 667 m 1
 0 751 l 1
 344 830 697 848 1050 848 c 0
 1403 848 1756 830 2100 751 c 1
 2081 667 l 1
 1743 744 1396 762 1050 762 c 0
 704 762 357 744 19 667 c 1
EndSplineSet
EndChar

StartChar: uni20D7
Encoding: 132 8407 124
Width: 450
Flags: W
HStem: 741 65<90 339>
LayerCount: 2
Back
Fore
SplineSet
463 774 m 1
 333 643 l 1
 287 689 l 1
 339 741 l 1
 90 741 l 1
 90 806 l 1
 340 806 l 1
 287 858 l 1
 333 904 l 1
 463 774 l 1
EndSplineSet
EndChar

StartChar: uni0335
Encoding: 133 821 125
Width: 300
Flags: W
HStem: 302 72<3 297>
VStem: -3 306
LayerCount: 2
Back
Fore
SplineSet
3 374 m 1
 303 374 l 1
 297 302 l 1
 -3 302 l 1
 3 374 l 1
EndSplineSet
EndChar

StartChar: uni0337
Encoding: 134 823 126
Width: 300
Flags: W
HStem: 209 258
VStem: -4 308
LayerCount: 2
Back
Fore
SplineSet
4 295 m 1
 304 467 l 1
 296 381 l 1
 -4 209 l 1
 4 295 l 1
EndSplineSet
EndChar

StartChar: uni0338
Encoding: 135 824 127
Width: 480
Flags: W
HStem: 686 20G<397.732 459>
LayerCount: 2
Back
Fore
SplineSet
486 676 m 1
 75 -455 l 1
 -6 -425 l 1
 405 706 l 1
 486 676 l 1
EndSplineSet
EndChar
